<?xml version="1.0" standalone="no"?>
<!DOCTYPE svg PUBLIC "-//W3C//DTD SVG 20010904//EN"
 "http://www.w3.org/TR/2001/REC-SVG-20010904/DTD/svg10.dtd">
<svg version="1.0" xmlns="http://www.w3.org/2000/svg"
 width="910.000000pt" height="607.000000pt" viewBox="0 0 910.000000 607.000000"
 preserveAspectRatio="xMidYMid meet">

<g transform="translate(0.000000,607.000000) scale(0.100000,-0.100000)"
fill="#000000" stroke="none">
<path d="M0 3035 l0 -3035 4550 0 4550 0 0 2805 0 2805 -22 4 c-13 2 -88 9
-168 16 -171 13 -574 48 -1035 90 -348 32 -914 80 -1225 104 -168 14 -344 26
-975 71 -418 30 -510 38 -528 47 -14 7 -17 19 -15 46 l3 37 60 3 c53 2 525
-27 1170 -73 243 -18 719 -48 1085 -70 449 -26 896 -55 1247 -80 189 -14 356
-25 373 -25 l30 0 0 145 0 145 -4550 0 -4550 0 0 -3035z m5600 3015 c0 -5 -4
-10 -9 -10 -6 0 -13 5 -16 10 -3 6 1 10 9 10 9 0 16 -4 16 -10z m115 0 c3 -5
-1 -10 -9 -10 -9 0 -16 5 -16 10 0 6 4 10 9 10 6 0 13 -4 16 -10z m45 0 c0 -5
-4 -10 -10 -10 -5 0 -10 5 -10 10 0 6 5 10 10 10 6 0 10 -4 10 -10z m87 -12
c-1 -11 -7 -16 -15 -13 -7 3 -18 5 -23 5 -4 0 -6 6 -3 14 8 21 43 16 41 -6z
m83 -4 c0 -11 -8 -14 -27 -12 -34 4 -42 25 -11 30 29 5 38 1 38 -18z m-277 9
c-7 -2 -19 -2 -25 0 -7 3 -2 5 12 5 14 0 19 -2 13 -5z m345 -13 c2 -10 -6 -16
-21 -18 -17 -1 -23 4 -23 19 0 24 39 23 44 -1z m52 -2 c10 -13 22 -19 26 -15
5 4 2 12 -6 17 -8 5 -12 12 -8 15 11 11 48 -5 48 -21 0 -16 17 -19 22 -4 3 10
26 14 76 12 24 -2 32 -7 32 -21 0 -21 -30 -37 -40 -22 -3 6 -39 11 -80 12 -76
1 -100 10 -100 35 0 20 9 17 30 -8z m306 -8 c15 0 24 -6 24 -15 0 -11 -12 -15
-45 -15 -25 0 -45 2 -45 4 0 19 15 36 27 32 8 -3 26 -6 39 -6z m-81 -10 c3 -5
-1 -10 -10 -10 -9 0 -13 5 -10 10 3 6 8 10 10 10 2 0 7 -4 10 -10z m-831 -168
c17 -10 -22 -21 -49 -14 -46 13 -45 35 1 26 22 -3 43 -9 48 -12z m429 -21 c34
-1 47 -5 47 -16 0 -11 -13 -14 -57 -13 -65 1 -107 13 -98 27 3 6 18 8 33 7 15
-2 48 -4 75 -5z m-677 -82 c3 -6 2 -15 -3 -20 -13 -13 -43 -1 -43 17 0 16 36
19 46 3z m924 -79 l25 -7 -26 -7 c-35 -10 -71 -4 -77 12 -4 13 37 15 78 2z
m209 -30 c0 -23 -1 -23 -9 -5 -7 17 -9 17 -9 3 -1 -10 -7 -18 -15 -18 -22 0
-29 18 -9 23 10 3 2 5 -17 6 -27 0 -32 -2 -20 -10 11 -8 7 -9 -19 -5 -18 3
-42 6 -52 6 -11 0 -16 5 -13 13 3 9 28 13 84 13 79 -1 80 -1 79 -26z m18 -12
c-3 -7 -5 -2 -5 12 0 14 2 19 5 13 2 -7 2 -19 0 -25z m1831 -11 c3 -15 -5 -17
-69 -13 -72 5 -102 17 -83 35 26 25 146 7 152 -22z m-1778 18 c0 -8 -9 -15
-20 -15 -11 0 -20 7 -20 15 0 8 9 15 20 15 11 0 20 -7 20 -15z m116 -10 c-12
-12 -16 -13 -17 -3 0 10 -2 10 -6 1 -7 -18 -43 -16 -43 1 0 10 13 16 38 18 46
4 48 3 28 -17z m-1286 -5 c0 -23 -29 -27 -48 -8 -19 19 -14 28 18 28 23 0 30
-4 30 -20z m1370 9 c0 -5 -8 -9 -18 -9 -10 0 -23 -5 -30 -12 -9 -9 -12 -8 -12
8 0 14 7 20 30 20 17 1 30 -2 30 -7z m60 -9 c0 -14 6 -20 23 -19 21 0 21 1 2
9 -19 8 -19 9 3 9 13 1 22 -5 22 -14 0 -10 -10 -15 -30 -15 -23 0 -30 5 -30
19 0 11 -6 22 -12 24 -8 3 -6 6 5 6 11 1 17 -6 17 -19z m120 -15 c0 -18 -5
-25 -20 -25 -11 0 -20 4 -20 10 0 5 7 7 15 4 10 -4 15 0 15 15 0 12 2 21 5 21
3 0 5 -11 5 -25z m70 -6 c0 -11 -29 -44 -34 -38 -2 2 -9 14 -15 27 -11 20 -10
22 19 22 16 0 30 -5 30 -11z m105 3 c17 -12 15 -44 -2 -38 -8 3 -17 6 -19 6
-2 0 -4 6 -4 14 0 9 -7 12 -20 9 -11 -3 -17 -9 -14 -14 3 -5 0 -9 -5 -9 -18 0
-12 28 7 33 28 7 46 7 57 -1z m85 -20 c0 -26 -3 -28 -30 -24 -23 3 -30 9 -29
26 1 19 2 19 6 2 4 -15 7 -16 14 -5 8 12 11 12 19 -1 8 -12 10 -11 10 8 0 12
2 22 5 22 3 0 5 -13 5 -28z m-1103 12 c-3 -3 -12 -4 -19 -1 -8 3 -5 6 6 6 11
1 17 -2 13 -5z m156 -10 c20 -4 37 -10 37 -15 0 -5 -7 -6 -15 -3 -8 4 -15 2
-15 -4 0 -14 -63 1 -68 16 -4 14 6 15 61 6z m81 -10 c22 -21 20 -33 -4 -27
-11 3 -17 10 -14 15 4 6 0 14 -7 19 -9 6 -10 9 -2 9 6 0 19 -7 27 -16z m964
10 c12 -4 22 -13 22 -21 0 -22 -84 -13 -88 10 -4 18 22 22 66 11z m106 -22
c-14 -17 -20 -18 -35 -9 -27 17 -23 29 5 21 13 -3 27 -1 31 6 4 6 9 9 12 7 2
-3 -3 -14 -13 -25z m-966 2 c2 -1 0 -10 -5 -19 -8 -14 -12 -14 -35 4 -14 11
-28 17 -32 14 -3 -3 -6 -1 -6 6 0 8 11 10 38 5 20 -4 39 -8 40 -10z m899 -16
c-3 -7 -5 -2 -5 12 0 14 2 19 5 13 2 -7 2 -19 0 -25z m563 22 c0 -5 -5 -10
-11 -10 -5 0 -7 5 -4 10 3 6 8 10 11 10 2 0 4 -4 4 -10z m-450 -9 c0 -6 -4
-13 -10 -16 -5 -3 -10 1 -10 9 0 9 5 16 10 16 6 0 10 -4 10 -9z m-880 -9 c0
-5 -6 -9 -12 -9 -7 0 -22 -4 -32 -9 -13 -5 -17 -4 -13 4 4 6 -1 13 -10 15 -10
3 1 5 25 6 23 0 42 -3 42 -7z m81 -6 c5 3 9 1 9 -4 0 -5 -15 -8 -32 -7 -18 1
-36 -3 -40 -9 -5 -7 -8 -5 -8 6 0 17 52 31 58 15 2 -4 8 -5 13 -1z m112 -11
c22 -4 37 -11 37 -20 0 -20 -19 -29 -25 -12 -4 10 -19 13 -53 10 -29 -2 -42 0
-34 5 7 5 10 16 6 26 -6 15 -4 16 12 8 10 -6 36 -14 57 -17z m127 -12 c19 -3
38 -10 42 -17 5 -6 8 -7 8 -1 0 6 9 11 20 11 13 0 20 -7 20 -18 0 -10 -4 -18
-10 -18 -5 0 -10 6 -10 13 0 9 -2 9 -9 -1 -7 -11 -11 -11 -24 2 -12 12 -17 13
-21 3 -5 -9 -7 -9 -12 1 -7 14 -34 17 -34 3 0 -5 -9 -7 -20 -4 -12 3 -20 14
-20 25 0 15 4 18 18 13 9 -4 33 -9 52 -12z m1187 5 c6 -7 13 -30 16 -50 7 -46
-3 -50 -113 -46 -66 3 -75 5 -78 23 -1 11 4 29 12 40 14 19 15 19 33 2 29 -25
56 -21 75 13 18 32 39 38 55 18z m-2703 -4 c22 -9 20 -31 -5 -44 -24 -14 -49
2 -49 31 0 19 23 25 54 13z m1623 -36 c-3 -8 -6 -5 -6 6 -1 11 2 17 5 13 3 -3
4 -12 1 -19z m45 0 c-7 -7 -12 -8 -12 -2 0 14 12 26 19 19 2 -3 -1 -11 -7 -17z
m-1617 2 c3 -5 1 -10 -4 -10 -6 0 -11 5 -11 10 0 6 2 10 4 10 3 0 8 -4 11 -10z
m2989 -7 c3 -6 -2 -14 -11 -17 -19 -8 -83 12 -83 24 0 13 89 7 94 -7z m145
-12 c11 -7 10 -11 -7 -20 -22 -12 -72 3 -72 21 0 11 61 10 79 -1z m423 -59
c-27 -4 -37 2 -27 17 4 8 13 7 28 -1 l22 -13 -23 -3z m-3615 -18 c3 -8 0 -21
-6 -27 -14 -14 -44 2 -49 27 -5 22 46 22 55 0z m830 0 c2 -7 -6 -10 -21 -7
-14 3 -23 10 -20 15 8 12 36 6 41 -8z m53 -6 c0 -16 -3 -19 -11 -11 -6 6 -8
16 -5 22 11 17 16 13 16 -11z m37 -10 c-3 -7 -5 -2 -5 12 0 14 2 19 5 13 2 -7
2 -19 0 -25z m53 28 c0 -3 -4 -8 -10 -11 -5 -3 -10 -1 -10 4 0 6 5 11 10 11 6
0 10 -2 10 -4z m2790 -6 c0 -5 -2 -10 -4 -10 -3 0 -8 5 -11 10 -3 6 -1 10 4
10 6 0 11 -4 11 -10z m-2763 -32 c-3 -7 -5 -2 -5 12 0 14 2 19 5 13 2 -7 2
-19 0 -25z m53 7 c0 -14 -3 -25 -7 -25 -5 0 -8 11 -8 25 0 14 3 25 8 25 4 0 7
-11 7 -25z m50 -5 c0 -11 -4 -20 -10 -20 -5 0 -10 9 -10 20 0 11 5 20 10 20 6
0 10 -9 10 -20z m38 -5 c0 -14 -4 -25 -9 -25 -5 0 -9 11 -9 25 0 14 4 25 9 25
5 0 9 -11 9 -25z m73 5 c5 0 9 -10 8 -22 0 -22 -1 -22 -9 -3 -5 11 -9 14 -9 8
-1 -7 -10 -13 -20 -13 -17 0 -19 5 -12 39 1 2 8 0 17 -3 9 -3 20 -6 25 -6z
m59 -10 c0 -5 -5 -10 -11 -10 -5 0 -7 5 -4 10 3 6 8 10 11 10 2 0 4 -4 4 -10z
m1378 -8 c2 -7 12 -12 22 -12 25 0 50 -10 50 -20 0 -5 -15 -9 -32 -9 -18 0
-62 0 -97 0 -75 0 -81 2 -81 36 0 25 1 25 67 21 39 -2 68 -9 71 -16z m628 6
c61 -11 78 -21 52 -31 -23 -7 -133 5 -140 16 -8 13 -1 27 14 27 6 0 39 -5 74
-12z m-1936 -19 c0 -5 -4 -9 -10 -9 -5 0 -10 7 -10 16 0 8 5 12 10 9 6 -3 10
-10 10 -16z m2313 -20 c56 -15 45 -24 -28 -22 -73 1 -99 8 -90 23 8 13 70 13
118 -1z m-3625 -45 c3 -23 -21 -49 -38 -39 -5 3 -10 20 -10 36 0 26 3 30 23
27 13 -2 23 -11 25 -24z m3025 -1 c15 -9 -5 -23 -31 -23 -43 0 -72 11 -72 27
0 11 10 13 48 7 26 -3 50 -9 55 -11z m205 -16 c6 0 12 -4 12 -8 0 -4 6 -7 13
-6 40 1 77 -4 77 -12 0 -11 -232 -1 -247 11 -29 23 -12 30 60 23 39 -5 78 -8
85 -8z m-675 -41 c15 -3 38 -8 52 -11 48 -10 14 -26 -46 -22 -59 4 -89 18 -89
42 0 19 23 24 40 9 8 -7 27 -15 43 -18z m-1760 -6 c22 -26 6 -26 -24 0 -17 14
-20 19 -9 20 9 0 23 -9 33 -20z m2717 3 c9 -8 -23 -20 -41 -16 -20 6 -24 15
-12 26 6 7 42 0 53 -10z m-2680 -3 c0 -5 -2 -10 -4 -10 -3 0 -8 5 -11 10 -3 6
-1 10 4 10 6 0 11 -4 11 -10z m74 -5 c45 0 42 -21 -4 -23 -36 -3 -40 0 -40 20
0 13 4 19 8 13 4 -5 20 -10 36 -10z m56 5 c0 -5 -2 -10 -4 -10 -3 0 -8 5 -11
10 -3 6 -1 10 4 10 6 0 11 -4 11 -10z m74 -13 c3 4 6 -5 6 -18 0 -20 -2 -21
-11 -9 -8 11 -12 12 -16 3 -3 -10 -8 -10 -19 1 -23 23 -17 37 10 26 13 -5 27
-6 30 -3z m61 -14 c-8 -7 -21 -10 -29 -7 -25 10 -18 21 13 21 24 0 27 -3 16
-14z m32 -5 c-3 -8 -6 -5 -6 6 -1 11 2 17 5 13 3 -3 4 -12 1 -19z m90 -10 c-3
-8 -6 -5 -6 6 -1 11 2 17 5 13 3 -3 4 -12 1 -19z m-1271 -10 c4 -6 0 -17 -9
-25 -13 -14 -17 -13 -36 6 -12 12 -19 25 -17 30 7 10 54 2 62 -11z m1238 5 c4
-9 1 -20 -6 -24 -7 -5 -14 -4 -16 1 -2 6 -16 11 -30 11 -17 1 -21 3 -9 6 9 2
17 9 17 14 0 16 38 10 44 -8z m1886 -9 c14 -14 8 -15 -55 -9 -85 8 -105 13
-105 27 0 17 142 1 160 -18z m-1758 -6 c5 -9 8 -7 9 7 0 11 3 15 5 8 3 -7 1
-20 -4 -29 -8 -14 -11 -14 -22 -3 -8 9 -31 13 -59 12 -27 -1 -34 1 -17 4 23 4
26 7 15 15 -10 7 -3 8 25 4 22 -3 43 -11 48 -18z m35 -15 c-3 -10 -5 -4 -5 12
0 17 2 24 5 18 2 -7 2 -21 0 -30z m1199 22 c19 -14 18 -15 -6 -34 -29 -23 -24
-26 65 -38 56 -8 60 -10 57 -33 -4 -44 -10 -52 -30 -41 -10 5 -44 11 -77 12
-94 4 -90 1 -87 79 4 69 4 70 31 70 15 0 36 -7 47 -15z m672 -23 c2 -7 -6 -12
-20 -12 -33 0 -68 11 -68 20 0 22 80 14 88 -8z m-1798 3 c0 -10 -10 -15 -30
-15 -20 0 -30 5 -30 15 0 10 10 15 30 15 20 0 30 -5 30 -15z m120 5 c0 -5 -7
-10 -16 -10 -8 0 -12 -4 -9 -10 3 -5 3 -14 0 -20 -8 -13 -35 11 -27 25 2 6 -1
4 -9 -2 -7 -7 -18 -13 -23 -13 -6 0 -4 5 4 10 13 9 13 10 0 11 -8 1 3 5 25 9
22 4 43 8 48 9 4 0 7 -3 7 -9z m-762 -12 c18 -18 14 -30 -7 -19 -10 6 -21 7
-25 4 -3 -3 -6 1 -6 10 0 20 21 22 38 5z m85 -2 c7 7 57 -25 57 -37 0 -5 -7
-9 -15 -9 -8 0 -15 7 -15 15 0 16 -26 21 -32 5 -1 -5 -8 2 -15 16 -10 21 -9
23 1 15 7 -6 15 -8 19 -5z m2432 3 c4 -6 5 -13 2 -15 -7 -8 -57 7 -57 17 0 13
47 11 55 -2z m-2475 -9 c0 -5 -2 -10 -4 -10 -3 0 -8 5 -11 10 -3 6 -1 10 4 10
6 0 11 -4 11 -10z m740 0 c0 -5 -5 -10 -11 -10 -5 0 -7 5 -4 10 3 6 8 10 11
10 2 0 4 -4 4 -10z m-518 -14 c4 3 8 -5 8 -18 0 -18 -2 -20 -10 -8 -5 8 -10
10 -10 3 0 -12 -17 -12 -35 -1 -5 3 -22 5 -37 3 -21 -2 -28 1 -28 14 0 16 6
17 52 10 28 -5 55 -6 60 -3z m2446 -4 c3 -9 -2 -13 -14 -10 -9 1 -19 9 -22 16
-3 9 2 13 14 10 9 -1 19 -9 22 -16z m-2342 -12 c8 0 14 -9 13 -22 -1 -17 -2
-19 -6 -5 -3 10 -14 17 -29 17 -13 0 -24 5 -24 11 0 6 7 8 16 5 9 -3 22 -6 30
-6z m59 -28 c-4 -4 -10 -1 -12 6 -3 6 -9 10 -14 6 -5 -3 -9 -1 -9 4 0 18 13
21 27 6 9 -8 12 -18 8 -22z m40 17 c11 -16 1 -19 -13 -3 -7 8 -8 14 -3 14 5 0
13 -5 16 -11z m79 -15 c9 -3 16 -12 16 -19 0 -13 14 -16 123 -31 39 -5 47 -4
47 10 0 9 4 16 10 16 5 0 7 -7 4 -15 -6 -16 -5 -16 36 -19 14 -2 46 -6 73 -10
26 -4 46 -4 45 1 -4 11 6 13 50 12 23 -1 29 -3 14 -6 -12 -2 -20 -9 -17 -14 8
-12 45 -12 45 1 0 6 4 10 10 10 5 0 7 -7 4 -15 -5 -12 2 -15 32 -14 22 1 31 3
22 6 -32 8 -19 21 15 13 17 -4 31 -12 30 -18 -2 -7 10 -12 30 -11 27 0 29 2
12 9 -19 8 -19 9 3 9 12 1 22 -5 22 -11 0 -10 2 -10 8 -1 12 18 72 21 72 3 0
-6 -11 -8 -26 -4 -20 5 -25 3 -22 -7 7 -20 58 -25 58 -5 0 10 9 16 25 16 16 0
25 -6 25 -16 0 -14 7 -16 40 -11 22 3 43 1 46 -4 3 -5 -3 -9 -13 -10 -11 0
-13 -3 -5 -6 7 -3 21 2 32 12 14 12 19 13 22 3 3 -9 26 -13 74 -13 64 0 69 -2
72 -22 4 -27 2 -28 -133 -8 -145 22 -432 62 -645 90 -102 14 -222 30 -268 36
-46 6 -81 13 -78 16 9 10 71 8 85 -2 11 -7 13 -6 9 5 -2 8 -15 17 -29 21 -14
4 -17 7 -7 8 9 1 23 -2 32 -5z m-624 -24 c0 -5 -2 -10 -4 -10 -3 0 -8 5 -11
10 -3 6 -1 10 4 10 6 0 11 -4 11 -10z m70 -5 c7 -9 10 -18 7 -21 -6 -7 -47 18
-47 28 0 14 27 9 40 -7z m40 -7 c0 -6 -6 -5 -15 2 -8 7 -15 14 -15 16 0 2 7 1
15 -2 8 -4 15 -11 15 -16z m48 6 c5 3 20 -4 33 -15 20 -17 21 -22 9 -29 -11
-7 -16 -4 -18 10 -3 20 -28 28 -34 10 -1 -5 -8 2 -15 16 -10 22 -10 24 2 14 8
-7 18 -9 23 -6z m622 4 c0 -11 -28 -10 -35 1 -3 6 4 9 15 8 11 -1 20 -5 20 -9z
m145 -18 l20 -9 -20 1 c-11 0 -31 4 -45 8 l-25 8 25 0 c14 0 34 -3 45 -8z
m-1472 -19 c19 -19 2 -22 -36 -6 -24 10 -51 13 -77 9 -27 -5 -40 -3 -40 5 0
15 137 8 153 -8z m917 6 c0 -5 -5 -5 -10 -2 -6 3 -13 -1 -16 -10 -6 -13 -8
-14 -15 -3 -5 7 -9 8 -9 3 0 -6 -9 -11 -20 -12 -11 -1 -20 2 -20 7 0 5 -13 7
-30 4 -23 -5 -30 -3 -30 10 0 13 12 16 75 13 41 -1 75 -6 75 -10z m95 -7 c12
10 15 9 15 -4 0 -10 5 -14 10 -11 6 3 10 1 10 -5 0 -6 -10 -8 -25 -4 -17 4
-25 2 -25 -7 0 -11 -3 -11 -11 1 -8 11 -12 12 -16 3 -3 -10 -8 -10 -19 1 -24
25 -17 36 16 24 23 -7 34 -7 45 2z m75 -21 c0 -4 -7 -6 -15 -3 -8 4 -15 10
-15 15 0 4 7 6 15 3 8 -4 15 -10 15 -15z m1262 -7 c7 -9 25 -23 41 -29 17 -8
27 -20 27 -33 0 -19 -4 -20 -37 -15 -95 16 -90 13 -90 55 0 35 3 40 23 40 12
0 29 -8 36 -18z m-1882 -2 c0 -5 -5 -10 -11 -10 -5 0 -7 5 -4 10 3 6 8 10 11
10 2 0 4 -4 4 -10z m673 -27 c19 -1 27 3 28 15 1 16 2 15 6 0 2 -10 5 -18 6
-18 49 -11 77 -10 77 2 0 10 9 13 30 10 17 -2 30 -8 30 -12 0 -4 -12 -6 -27
-3 -24 3 -25 2 -8 -6 27 -13 78 -14 70 -1 -3 6 4 10 17 10 18 0 20 -2 8 -10
-20 -13 -12 -18 43 -25 31 -4 47 -3 47 4 0 6 -11 11 -25 11 -14 0 -25 4 -25 8
0 5 14 7 30 4 20 -3 30 -10 30 -21 0 -10 7 -18 15 -18 8 0 15 6 15 14 0 7 5
13 10 13 6 0 10 -7 10 -15 0 -8 6 -15 14 -15 8 0 21 -3 30 -6 9 -3 16 -1 16 5
0 6 -7 11 -15 11 -8 0 -15 4 -15 8 0 8 94 -2 130 -14 12 -4 12 -6 0 -14 -11
-7 -8 -10 12 -15 32 -8 57 3 37 16 -11 7 -11 9 1 9 31 0 60 -13 60 -26 0 -8 7
-14 15 -14 13 0 14 4 5 20 -10 18 -9 19 15 10 15 -6 38 -10 53 -11 15 0 21 -3
15 -6 -7 -2 -13 -9 -13 -14 0 -14 30 -11 45 5 11 11 23 11 57 2 24 -6 47 -16
51 -23 12 -19 37 -16 38 5 0 13 2 12 9 -5 5 -13 14 -23 20 -23 6 0 15 10 20
23 8 21 11 20 14 -5 0 -7 11 -14 23 -16 23 -3 41 -32 19 -32 -7 0 -87 11 -177
25 -90 13 -328 47 -529 75 -391 55 -426 61 -397 67 9 3 17 12 18 21 1 13 2 13
7 -3 5 -13 17 -21 35 -22z m-496 3 c3 -3 3 -9 -2 -13 -4 -5 -10 -2 -12 5 -3 6
-9 12 -14 12 -4 0 -6 -7 -2 -15 5 -13 2 -14 -21 -4 -14 7 -26 16 -26 21 0 9
67 5 77 -6z m112 -27 c7 11 151 10 151 -1 0 -5 -7 -8 -15 -8 -8 0 -15 -8 -16
-17 0 -15 -2 -15 -9 2 -5 11 -9 15 -9 10 -1 -12 -41 -18 -41 -6 0 4 -22 5 -50
1 -44 -6 -50 -4 -50 12 0 20 -26 25 -33 6 -4 -8 -6 -7 -6 4 -1 24 21 27 48 6
14 -11 27 -14 30 -9z m224 -18 c4 -1 7 -9 6 -18 0 -11 -3 -13 -6 -5 -2 6 -11
12 -19 12 -9 0 -12 -4 -9 -10 3 -6 -1 -7 -9 -4 -25 10 -19 35 7 30 12 -3 25
-5 30 -5z m57 -27 c0 -3 -7 -1 -15 6 -12 10 -15 10 -15 0 0 -8 -3 -11 -6 -7
-4 3 -4 13 0 22 5 15 8 15 21 1 8 -8 15 -18 15 -22z m-1075 13 c11 -3 24 -6
30 -6 5 -1 4 -6 -2 -12 -8 -8 -17 -8 -31 0 -11 6 -43 11 -71 11 -30 0 -51 4
-51 11 0 11 80 8 125 -4z m1112 -18 c2 -16 -1 -19 -9 -11 -5 5 -7 15 -4 21 10
15 12 14 13 -10z m34 2 c8 12 11 12 19 -1 8 -13 10 -12 10 4 0 11 3 17 6 13 3
-3 3 -14 0 -25 -9 -28 -56 -18 -55 12 1 19 2 19 6 2 4 -15 7 -16 14 -5z m56
-23 c-3 -7 -5 -2 -5 12 0 14 2 19 5 13 2 -7 2 -19 0 -25z m53 1 c0 -6 5 -7 10
-4 6 3 10 1 10 -4 0 -6 -2 -11 -4 -11 -2 0 -11 -3 -20 -6 -12 -4 -16 0 -16 15
0 12 -4 21 -10 21 -5 0 -10 5 -10 10 0 7 6 7 20 0 11 -6 20 -15 20 -21z m44
-4 c-4 -8 -8 -15 -10 -15 -2 0 -4 7 -4 15 0 8 4 15 10 15 5 0 7 -7 4 -15z m50
9 c23 -9 20 -34 -4 -34 -13 0 -20 7 -20 20 0 22 1 23 24 14z m66 -4 c0 -5 -4
-10 -10 -10 -5 0 -10 5 -10 10 0 6 5 10 10 10 6 0 10 -4 10 -10z m1000 -10
c11 0 11 -3 -4 -11 -10 -6 -38 -9 -62 -6 -34 3 -47 1 -54 -12 -13 -22 -12 -7
1 22 10 22 14 23 57 16 26 -4 54 -8 62 -9z m-1026 -5 c3 -8 1 -15 -4 -15 -6 0
-10 7 -10 15 0 8 2 15 4 15 2 0 6 -7 10 -15z m43 -7 c-3 -8 -6 -5 -6 6 -1 11
2 17 5 13 3 -3 4 -12 1 -19z m-1650 -30 c-3 -8 -6 -5 -6 6 -1 11 2 17 5 13 3
-3 4 -12 1 -19z m163 -29 c0 -7 -110 0 -119 7 -1 1 -1 7 2 11 7 10 117 -7 117
-18z m510 21 c0 -5 -4 -10 -9 -10 -6 0 -13 5 -16 10 -3 6 1 10 9 10 9 0 16 -4
16 -10z m40 -4 c0 -11 -19 -15 -25 -6 -3 5 1 10 9 10 9 0 16 -2 16 -4z m45 -6
c3 -5 -1 -10 -9 -10 -9 0 -16 5 -16 10 0 6 4 10 9 10 6 0 13 -4 16 -10z m2254
-23 c22 -27 -18 -36 -64 -15 -14 6 -25 15 -25 20 0 13 77 9 89 -5z m-2343 -65
c-9 -9 -37 8 -31 18 5 8 11 7 21 -1 8 -6 12 -14 10 -17z m-676 -8 c0 -8 -4
-12 -10 -9 -5 3 -10 10 -10 16 0 5 5 9 10 9 6 0 10 -7 10 -16z m720 6 c0 -5
-2 -10 -4 -10 -3 0 -8 5 -11 10 -3 6 -1 10 4 10 6 0 11 -4 11 -10z m40 0 c0
-5 -7 -10 -16 -10 -8 0 -12 5 -9 10 3 6 10 10 16 10 5 0 9 -4 9 -10z m-664
-20 c23 0 34 -5 34 -14 0 -11 -9 -13 -37 -10 -53 8 -63 12 -63 25 0 6 7 8 16
5 9 -3 31 -6 50 -6z m2949 -19 c0 0 24 -3 53 -7 36 -4 52 -11 52 -21 0 -12 -8
-14 -37 -9 -21 4 -63 7 -93 9 -55 2 -80 10 -80 27 0 13 31 17 70 8 19 -4 35
-7 35 -7z m255 -35 c56 -17 50 -31 -12 -31 -49 1 -75 15 -64 34 9 14 21 14 76
-3z m128 -33 c5 -18 -20 -16 -44 2 -18 15 -18 15 10 13 16 -2 31 -9 34 -15z
m-3437 -16 c-1 -12 -15 -9 -19 4 -3 6 1 10 8 8 6 -3 11 -8 11 -12z m118 -22
c2 -3 2 -7 -1 -10 -8 -9 -88 6 -88 16 0 9 80 3 89 -6z m2986 1 c26 -11 33 -19
28 -31 -4 -12 -13 -15 -32 -11 -14 4 -52 10 -83 15 -32 5 -62 12 -68 16 -42
26 96 35 155 11z m-2397 -27 c-2 -6 -8 -10 -13 -10 -5 0 -11 4 -13 10 -2 6 4
11 13 11 9 0 15 -5 13 -11z m179 -36 c4 -11 -69 -17 -98 -8 -21 7 -26 31 -7
37 17 6 101 -17 105 -29z m2448 20 c15 -14 15 -17 1 -25 -17 -9 -136 20 -136
34 0 4 27 8 59 8 42 0 64 -5 76 -17z m-2401 -12 c8 -12 66 -20 72 -9 8 13 34
-11 34 -31 -1 -14 -2 -14 -11 2 -12 21 -29 22 -29 1 0 -11 -6 -14 -20 -10 -11
3 -28 8 -38 11 -9 3 -23 14 -30 25 -10 17 -10 20 2 20 8 0 17 -4 20 -9z m-944
-36 c7 -9 10 -18 7 -22 -8 -7 -37 15 -37 28 0 14 16 11 30 -6z m3004 -1 c23
-9 20 -31 -4 -39 -23 -7 -50 10 -50 31 0 15 27 18 54 8z m134 -16 c21 -21 13
-38 -17 -38 -33 0 -46 13 -37 35 7 18 37 20 54 3z m-3033 -9 c10 -15 4 -17
-32 -12 -18 3 -30 9 -27 14 7 13 51 11 59 -2z m635 -15 c0 -14 -3 -14 -15 -4
-8 7 -15 14 -15 16 0 2 7 4 15 4 8 0 15 -7 15 -16z m83 -4 c8 0 8 -3 0 -11
-13 -13 -43 -5 -43 12 0 6 7 8 16 5 9 -3 21 -6 27 -6z m140 -20 c23 -5 40 -4
43 2 4 7 10 4 16 -6 5 -9 21 -16 36 -16 15 0 41 -4 59 -9 22 -7 34 -6 37 2 5
9 8 9 12 0 3 -7 12 -13 20 -13 8 0 14 -6 14 -12 0 -16 -20 -47 -20 -32 0 7
-20 15 -45 18 -33 5 -45 12 -45 24 0 14 -2 14 -9 3 -11 -18 -61 -6 -61 14 0 8
-4 15 -10 15 -5 0 -10 -4 -10 -8 0 -7 -41 -9 -65 -3 -5 2 -27 2 -47 1 -27 -1
-38 3 -38 13 0 28 7 29 113 7z m2055 -52 c3 -15 -4 -18 -37 -18 -29 0 -41 4
-41 14 0 29 73 32 78 4z m-2242 -26 c-9 -9 -37 8 -31 18 5 8 11 7 21 -1 8 -6
12 -14 10 -17z m488 22 c17 -7 22 -44 6 -44 -5 0 -10 5 -10 11 0 7 -10 9 -24
7 -19 -4 -24 -1 -23 14 1 18 22 23 51 12z m1896 -9 c16 -19 5 -35 -24 -35 -27
0 -51 24 -41 40 9 15 51 12 65 -5z m-2350 -15 c0 -5 -4 -10 -10 -10 -5 0 -10
5 -10 10 0 6 5 10 10 10 6 0 10 -4 10 -10z m37 4 c-3 -3 -12 -4 -19 -1 -8 3
-5 6 6 6 11 1 17 -2 13 -5z m508 -3 c-3 -5 5 -13 17 -17 13 -4 24 -2 26 5 5
16 32 14 32 -3 0 -7 9 -16 20 -19 13 -3 20 0 20 9 0 8 4 14 9 14 10 0 25 -50
16 -58 -3 -3 -5 0 -5 5 0 6 -36 19 -80 29 -52 11 -80 22 -80 30 0 8 7 14 16
14 8 0 13 -4 9 -9z m35 -1 c0 -5 -4 -10 -10 -10 -5 0 -10 5 -10 10 0 6 5 10
10 10 6 0 10 -4 10 -10z m-510 -10 c0 -5 -4 -10 -10 -10 -5 0 -10 5 -10 10 0
6 5 10 10 10 6 0 10 -4 10 -10z m69 0 c23 -6 39 -6 47 0 8 7 13 6 17 -4 4 -10
18 -14 46 -13 23 2 41 0 41 -3 0 -11 94 -29 123 -23 24 5 27 2 27 -21 0 -16
-5 -26 -15 -26 -8 0 -15 3 -15 8 0 4 -14 8 -30 9 -17 1 -30 -2 -30 -7 0 -6 -4
-10 -10 -10 -5 0 -10 10 -10 23 0 18 -2 19 -10 7 -9 -13 -13 -11 -31 10 -14
17 -19 19 -15 7 5 -15 1 -17 -22 -13 -15 2 -33 5 -39 5 -7 1 -13 10 -13 21 0
11 -4 20 -10 20 -5 0 -10 -4 -10 -9 0 -6 -18 -9 -40 -9 -32 0 -40 4 -40 19 0
11 1 19 3 19 1 0 18 -4 36 -10z m601 -10 c0 -5 -2 -10 -4 -10 -3 0 -8 5 -11
10 -3 6 -1 10 4 10 6 0 11 -4 11 -10z m-25 -10 c3 -5 -1 -10 -9 -10 -9 0 -16
5 -16 10 0 6 4 10 9 10 6 0 13 -4 16 -10z m78 -6 c3 -4 -1 -13 -9 -22 -12 -12
-18 -12 -27 -2 -9 10 -9 11 1 6 7 -4 12 -1 12 8 0 16 12 21 23 10z m67 -4 c0
-5 -4 -10 -10 -10 -5 0 -10 5 -10 10 0 6 5 10 10 10 6 0 10 -4 10 -10z m-30
-20 c0 -22 -1 -23 -24 -14 -13 5 -14 9 -5 20 16 20 29 17 29 -6z m70 5 c0 -8
-2 -15 -4 -15 -2 0 -6 7 -10 15 -3 8 -1 15 4 15 6 0 10 -7 10 -15z m-990 -15
c0 -5 -7 -10 -15 -10 -8 0 -15 5 -15 10 0 6 7 10 15 10 8 0 15 -4 15 -10z
m1076 0 c8 0 14 -5 14 -10 0 -15 -43 -30 -54 -19 -6 5 -24 10 -40 10 -17 1
-23 3 -13 6 9 2 17 9 17 15 0 6 12 8 31 4 17 -3 38 -6 45 -6z m1267 -4 c81
-13 109 -28 90 -47 -7 -7 -23 -7 -49 -1 -22 6 -63 13 -93 17 -58 7 -91 20 -91
35 0 13 48 12 143 -4z m-2235 -16 c3 -9 -1 -11 -12 -7 -10 4 -26 7 -37 7 -10
0 -19 4 -19 10 0 14 63 5 68 -10z m532 9 c0 -6 -4 -7 -10 -4 -5 3 -10 0 -10
-8 0 -19 -43 -27 -58 -11 -21 23 -13 30 33 31 25 1 45 -3 45 -8z m37 -36 c-3
-10 -5 -4 -5 12 0 17 2 24 5 18 2 -7 2 -21 0 -30z m57 11 c26 -10 18 -31 -14
-36 -26 -4 -29 -2 -28 19 2 23 14 28 42 17z m66 -5 c0 -6 9 -9 20 -6 15 4 20
0 20 -14 0 -10 5 -19 10 -19 6 0 9 3 9 8 -3 20 3 21 31 7 33 -17 40 -35 13
-35 -15 0 -16 2 -3 10 9 6 10 10 3 10 -6 0 -14 -4 -18 -10 -3 -5 -11 -7 -18
-5 -7 2 -24 6 -39 9 -16 4 -28 13 -28 21 0 8 -4 15 -10 15 -5 0 -10 5 -10 10
0 6 5 10 10 10 6 0 10 -5 10 -11z m1863 -28 c61 -10 75 -16 63 -28 -3 -4 -27
-2 -51 5 -25 7 -65 12 -89 12 -28 0 -48 6 -57 17 -15 18 -14 18 134 -6z
m-1686 -8 c16 3 35 2 43 -4 13 -7 12 -9 -2 -9 -10 0 -18 -6 -18 -14 0 -8 -9
-12 -26 -10 -30 3 -30 2 -38 34 -5 17 -4 21 2 11 7 -9 20 -12 39 -8z m-976
-16 c-5 -5 -18 -7 -28 -3 -14 6 -15 9 -4 16 19 11 46 1 32 -13z m2246 -10 c19
-14 6 -26 -27 -25 -38 1 -58 22 -34 36 18 10 39 6 61 -11z m631 -4 c4 -26 -16
-30 -49 -12 -17 8 -18 13 -8 25 18 22 53 13 57 -13z m-2761 6 c15 -6 46 -12
68 -14 22 -2 51 -6 65 -10 14 -3 37 -8 51 -9 14 -2 32 -7 39 -11 7 -5 33 -8
57 -8 37 0 43 -3 43 -21 0 -17 2 -18 10 -6 8 12 10 11 10 -6 0 -20 -3 -21 -36
-14 -21 5 -41 15 -45 22 -6 8 -9 9 -9 2 0 -14 -66 -2 -83 15 -6 6 -16 11 -21
11 -6 0 -4 -5 4 -10 9 -6 10 -10 3 -10 -6 0 -14 4 -17 9 -3 5 -15 7 -26 4 -15
-4 -20 0 -20 16 0 22 -14 28 -25 11 -7 -11 -67 -13 -102 -4 -25 7 -31 29 -10
37 6 3 13 6 14 6 1 1 14 -4 30 -10z m933 -4 c0 -8 -4 -15 -10 -15 -5 0 -7 7
-4 15 4 8 8 15 10 15 2 0 4 -7 4 -15z m-1010 1 c0 -3 -4 -8 -10 -11 -5 -3 -10
-1 -10 4 0 6 5 11 10 11 6 0 10 -2 10 -4z m2370 -21 c20 -24 3 -32 -52 -27
-103 9 -122 42 -24 42 43 0 67 -5 76 -15z m650 -20 c0 -16 -18 -19 -44 -9 -19
7 -21 30 -3 37 18 6 47 -11 47 -28z m-490 -3 c13 -11 20 -24 16 -30 -11 -18
-51 -14 -77 7 l-24 20 25 10 c34 13 35 13 60 -7z m-2073 -27 c8 -9 13 -19 10
-22 -6 -5 -37 21 -37 31 0 10 11 6 27 -9z m-458 -20 c0 -11 -3 -14 -6 -7 -2 6
-9 10 -14 6 -12 -7 -31 5 -24 16 11 18 45 6 44 -15z m140 -10 c67 -4 121 -16
121 -27 0 -5 -4 -7 -9 -3 -5 3 -12 1 -16 -5 -8 -13 6 -13 41 0 18 7 30 7 39 0
6 -5 15 -7 18 -3 4 3 7 -2 7 -13 1 -17 2 -17 10 -2 7 11 19 15 37 12 36 -7 43
-12 43 -35 0 -16 -4 -18 -27 -12 -16 4 -37 7 -48 7 -22 0 -45 18 -45 35 0 16
-17 13 -24 -4 -6 -18 -18 -18 -68 -4 -23 6 -38 16 -38 25 0 12 -6 13 -22 7
-46 -15 -128 -2 -128 21 0 19 21 25 44 13 10 -5 40 -11 65 -12z m2054 1 c25
-19 21 -26 -17 -26 -36 0 -68 24 -44 33 22 9 42 7 61 -7z m194 -35 c8 -12 9
-18 0 -23 -15 -10 -71 -10 -81 -1 -3 4 -16 8 -27 10 -29 4 -59 22 -59 34 0 18
153 -1 167 -20z m191 -34 c23 -18 12 -27 -31 -27 -24 0 -52 7 -63 15 -18 14
-18 15 -1 29 19 15 65 7 95 -17z m-2578 -1 c0 -21 -11 -25 -37 -15 -33 12 -28
29 7 29 19 0 30 -5 30 -14z m532 -9 c16 -6 28 -16 28 -20 0 -5 -4 -6 -9 -3 -5
4 -11 1 -13 -5 -3 -8 -16 -10 -41 -5 -29 5 -37 12 -38 29 -1 21 -1 20 -9 -3
l-8 -25 -1 29 c-1 27 1 28 31 22 18 -4 45 -12 60 -19z m-388 -13 c11 3 32 -4
48 -15 15 -11 32 -17 38 -14 6 4 27 1 47 -6 26 -8 38 -9 41 -1 2 7 12 7 33 0
l29 -10 -23 -19 c-22 -17 -28 -17 -77 -4 -29 8 -56 13 -59 13 -16 -4 -51 15
-51 28 0 12 -6 13 -22 8 -45 -16 -128 -2 -128 20 0 21 19 24 64 9 22 -8 49
-12 60 -9z m446 2 c0 -3 -4 -8 -10 -11 -5 -3 -10 -1 -10 4 0 6 5 11 10 11 6 0
10 -2 10 -4z m1650 -23 c13 -12 13 -15 0 -23 -8 -5 -26 -7 -40 -4 -33 6 -73
12 -82 13 -13 1 -9 29 5 34 23 8 102 -5 117 -20z m-2010 7 c0 -5 -4 -10 -10
-10 -5 0 -10 5 -10 10 0 6 5 10 10 10 6 0 10 -4 10 -10z m380 -5 c0 -8 -4 -15
-10 -15 -5 0 -7 7 -4 15 4 8 8 15 10 15 2 0 4 -7 4 -15z m1799 -40 c22 -22 9
-27 -48 -19 -32 4 -51 11 -51 20 0 26 72 26 99 -1z m-2442 -15 c12 -17 11 -18
-9 -11 -25 9 -36 31 -16 31 7 0 19 -9 25 -20z m523 9 c38 -8 50 -15 50 -29 0
-10 -4 -22 -10 -25 -5 -3 -10 3 -10 14 0 12 -4 21 -10 21 -5 0 -7 -7 -3 -16
10 -27 -40 -12 -55 16 -13 23 -13 23 -9 3 6 -27 6 -27 -28 -11 -14 6 -25 17
-25 25 0 16 32 17 100 2z m-383 -28 c23 -7 33 -6 37 2 3 9 7 9 14 -1 5 -7 25
-14 45 -15 20 -1 37 -6 37 -11 0 -4 9 -6 20 -3 16 4 20 0 20 -20 0 -22 -3 -24
-26 -19 -15 4 -40 10 -56 13 -18 4 -33 14 -36 25 -3 14 -10 17 -26 11 -43 -15
-126 -1 -126 21 0 17 29 25 50 15 8 -4 29 -12 47 -18z m496 3 c10 -10 -12 -44
-28 -44 -9 0 -15 10 -15 25 0 18 5 25 18 25 10 0 22 -3 25 -6z m1610 -28 c31
-9 57 -21 57 -26 0 -15 -69 -23 -96 -11 -14 6 -34 11 -45 11 -11 0 -22 7 -26
16 -7 18 15 35 37 30 8 -3 41 -12 73 -20z m-1509 -23 c6 -18 4 -20 -14 -16
-19 5 -27 32 -13 47 9 8 19 -3 27 -31z m-374 -10 c0 -7 -4 -13 -10 -13 -5 0
-10 7 -10 15 0 8 -4 15 -10 15 -5 0 -10 5 -10 10 0 6 8 5 20 -2 11 -7 20 -18
20 -25z m410 27 c0 -5 -7 -10 -15 -10 -8 0 -15 5 -15 10 0 6 7 10 15 10 8 0
15 -4 15 -10z m90 -35 c0 -22 -4 -25 -25 -21 -33 6 -45 14 -45 32 0 9 11 14
35 14 31 0 35 -3 35 -25z m-837 -10 c-3 -10 1 -15 12 -15 9 0 13 5 10 10 -7
11 24 13 49 4 9 -3 16 -13 16 -21 0 -11 -5 -13 -17 -8 -10 4 -33 8 -50 9 -40
2 -65 22 -43 36 18 11 31 3 23 -15z m907 -10 c0 -18 -4 -21 -25 -17 -23 4 -34
30 -19 44 13 13 44 -6 44 -27z m1499 24 c17 -6 31 -18 31 -26 0 -13 -9 -14
-47 -8 -53 8 -63 12 -63 25 0 7 14 14 41 19 3 0 20 -4 38 -10z m-1424 -19 c3
-5 2 -10 -4 -10 -5 0 -11 -6 -14 -12 -2 -7 -3 -5 -2 5 2 9 -1 17 -6 17 -5 0
-9 -9 -9 -20 0 -11 -4 -20 -9 -20 -4 0 -6 11 -3 25 4 25 35 35 47 15z m-804
-17 c10 3 19 1 19 -4 0 -5 11 -7 25 -3 15 4 25 2 25 -5 0 -6 8 -11 17 -11 28
0 83 -23 83 -35 0 -7 16 -16 35 -22 29 -9 35 -9 35 3 0 12 8 13 38 8 44 -8 51
-12 33 -23 -10 -6 -9 -10 4 -15 26 -9 35 -7 35 8 0 12 7 13 31 6 18 -5 36 -7
40 -4 5 3 9 0 9 -5 0 -6 -10 -11 -22 -11 -19 0 -20 -2 -8 -10 24 -16 38 -12
43 13 4 19 4 19 6 -5 1 -31 21 -41 38 -19 11 15 12 15 13 0 0 -18 47 -32 56
-18 3 5 -4 9 -16 9 -12 0 -19 4 -16 8 3 5 19 7 35 4 21 -3 31 -10 33 -25 4
-24 28 -36 28 -13 0 11 9 16 30 16 17 0 30 -5 30 -10 0 -6 -12 -8 -26 -6 -21
4 -24 3 -14 -10 19 -22 50 -18 51 9 1 18 3 16 9 -8 4 -16 8 -23 9 -14 1 21 41
33 41 13 0 -8 -6 -11 -15 -8 -8 4 -15 1 -15 -5 0 -6 3 -11 8 -11 4 0 17 -3 30
-6 18 -5 22 -2 22 15 0 20 4 21 38 15 20 -3 42 -13 48 -21 7 -8 32 -15 60 -16
50 -2 71 -22 32 -30 -16 -4 -14 -5 7 -4 17 1 29 7 28 14 -3 13 80 5 85 -8 2
-5 17 -9 33 -9 34 0 40 -19 7 -21 -18 -1 -16 -3 7 -8 19 -4 35 -2 43 6 17 16
14 17 97 -11 53 -17 69 -27 67 -40 -2 -9 4 -16 13 -16 8 0 15 5 15 10 0 6 5
10 11 10 6 0 9 -6 6 -14 -4 -9 3 -17 16 -21 14 -4 17 -8 9 -12 -11 -4 -178 33
-637 143 -99 23 -298 69 -443 101 -240 53 -262 60 -260 78 3 18 -3 20 -57 20
-55 0 -60 2 -63 23 -3 21 -2 22 18 12 12 -7 31 -10 41 -7z m870 7 c14 0 19 -7
19 -25 0 -31 -19 -33 -21 -2 l-2 22 -4 -22 c-5 -24 -18 -30 -28 -12 -4 6 -13
8 -21 5 -8 -3 -14 1 -14 10 0 8 5 12 10 9 6 -3 10 1 10 10 0 12 5 15 16 11 9
-3 24 -6 35 -6z m104 -36 c22 -5 39 -15 38 -22 -2 -7 2 -12 7 -12 6 0 10 -4
10 -10 0 -5 -6 -7 -12 -5 -7 2 -32 9 -55 15 -37 9 -43 14 -43 38 0 15 4 22 8
17 4 -6 25 -15 47 -21z m975 -4 c0 -5 -4 -10 -9 -10 -6 0 -13 5 -16 10 -3 6 1
10 9 10 9 0 16 -4 16 -10z m143 -11 c31 -13 34 -24 11 -33 -27 -10 -50 -7
-100 16 -41 18 -46 22 -29 29 24 9 80 3 118 -12z m-861 -33 c21 -9 48 -16 62
-16 29 0 43 -17 27 -33 -8 -8 -17 -7 -33 1 -13 6 -34 12 -48 14 -14 2 -28 7
-32 12 -4 6 -13 4 -22 -4 -9 -7 -20 -10 -23 -6 -4 4 -1 11 7 17 13 8 13 10 0
19 -11 7 -16 5 -18 -5 -4 -17 -42 -21 -42 -5 0 6 -11 8 -25 4 -20 -5 -25 -2
-25 13 0 11 2 22 5 25 8 7 122 -17 167 -36z m-1422 8 c0 -24 -1 -24 -17 -9
-14 14 -14 18 -2 26 19 12 19 12 19 -17z m74 0 c9 -3 16 -13 16 -21 0 -10 -6
-12 -22 -7 -13 4 -31 7 -40 6 -11 0 -15 5 -11 14 5 15 30 18 57 8z m107 -21
c10 3 19 1 19 -5 0 -5 8 -8 18 -7 9 1 24 0 32 -3 8 -3 34 -11 58 -19 27 -8 41
-17 38 -25 -3 -7 4 -15 15 -18 10 -4 28 -9 39 -12 14 -4 20 -1 20 11 0 9 5 13
11 10 5 -4 31 -10 57 -14 30 -4 47 -11 47 -20 0 -8 10 -16 23 -18 13 -1 21 1
18 5 -3 5 11 8 29 8 35 -1 51 -16 18 -16 -17 -1 -17 -1 0 -11 10 -6 30 -13 44
-15 15 -3 31 -8 37 -11 6 -4 5 1 -3 10 -7 9 -20 17 -29 17 -8 0 -13 2 -10 5
10 11 58 -7 58 -21 0 -12 9 -17 23 -13 1 0 14 -4 30 -10 17 -7 27 -7 27 -1 0
6 -4 10 -10 10 -5 0 -10 4 -10 10 0 20 30 -3 31 -24 1 -19 2 -19 9 4 8 24 8
24 9 3 1 -16 7 -23 20 -23 12 0 21 8 24 23 4 19 4 18 6 -5 1 -22 6 -28 24 -27
16 1 18 2 5 6 -10 2 -18 9 -18 15 0 5 7 7 16 4 9 -3 22 -6 30 -6 8 0 14 -10
14 -25 0 -14 -2 -25 -5 -25 -3 0 -81 18 -173 40 -222 54 -307 74 -429 101 -92
21 -103 25 -103 45 0 20 -4 21 -55 18 -45 -2 -57 0 -65 15 -12 24 -2 33 22 20
11 -6 29 -9 39 -6z m489 -23 c0 -5 -4 -10 -10 -10 -5 0 -10 5 -10 10 0 6 5 10
10 10 6 0 10 -4 10 -10z m-680 -41 c0 -12 -5 -16 -15 -13 -8 4 -15 12 -15 18
0 7 7 13 15 13 8 0 15 -8 15 -18z m74 -5 c9 -3 16 -13 16 -21 0 -10 -6 -12
-22 -7 -13 4 -31 7 -41 6 -15 -1 -16 2 -7 14 13 15 29 18 54 8z m107 -21 c10
3 19 1 19 -5 0 -5 8 -8 18 -7 9 1 26 -1 37 -5 11 -5 36 -14 55 -21 19 -7 35
-19 35 -26 0 -7 15 -16 33 -20 28 -6 32 -4 27 11 -5 16 -3 17 32 5 21 -7 39
-20 41 -28 3 -14 60 -32 70 -22 3 3 0 5 -6 5 -7 0 -12 5 -12 10 0 21 30 9 31
-12 1 -22 1 -22 8 2 5 17 9 21 15 12 4 -6 15 -12 24 -12 37 0 92 -22 92 -35 0
-12 9 -18 23 -14 1 0 14 -4 30 -10 15 -6 27 -9 27 -6 0 2 -12 11 -27 19 -29
16 -23 20 14 10 11 -3 23 -14 26 -25 7 -26 27 -24 28 4 l2 22 4 -22 c3 -16 11
-23 26 -22 21 0 21 1 2 9 -19 8 -19 9 3 9 16 1 22 -5 23 -21 1 -22 1 -22 9 2
8 25 8 25 9 2 1 -13 5 -21 9 -18 5 3 21 -1 36 -9 25 -13 27 -13 21 4 -5 15 -1
18 21 13 16 -3 29 -13 32 -26 6 -18 7 -17 13 9 l7 30 1 -27 c0 -16 6 -28 12
-28 5 0 7 5 4 10 -3 6 3 10 14 10 15 0 21 -7 22 -22 1 -22 1 -22 9 2 l8 25 1
-24 c1 -13 4 -21 8 -18 3 4 12 2 20 -4 10 -9 13 -6 14 12 l1 24 8 -25 c4 -14
8 -18 9 -9 2 28 59 11 77 -22 8 -17 10 -29 4 -29 -5 0 -144 33 -308 74 -163
41 -388 96 -500 122 -111 26 -201 53 -201 58 3 30 -2 35 -33 30 -53 -9 -72 -6
-85 12 -17 23 -6 36 19 23 11 -6 29 -9 39 -6z m786 -15 c-3 -8 -6 -5 -6 6 -1
11 2 17 5 13 3 -3 4 -12 1 -19z m-973 -36 c9 -14 -9 -31 -23 -23 -7 5 -10 14
-7 20 8 13 23 14 30 3z m70 -18 c9 -3 16 -15 16 -25 0 -18 -1 -19 -25 -3 -14
9 -31 14 -39 11 -10 -4 -13 -1 -9 9 5 15 30 18 57 8z m123 -28 c21 -2 45 -6
53 -10 8 -3 33 -12 55 -19 22 -8 40 -20 40 -27 0 -13 27 -28 53 -29 9 -1 11 6
7 22 -6 18 -5 20 6 10 7 -7 24 -13 37 -13 15 0 26 -7 29 -20 5 -19 39 -37 51
-26 3 3 -3 13 -14 22 -18 15 -18 15 -1 10 11 -3 31 -9 45 -12 62 -13 94 -27
83 -34 -9 -5 -8 -10 4 -20 13 -11 15 -9 15 9 0 12 4 20 10 16 5 -3 7 -12 3
-20 -3 -9 1 -15 8 -15 8 0 24 -3 37 -6 13 -4 22 -2 22 5 0 6 -10 11 -22 12
-13 0 -17 3 -10 6 7 3 26 0 42 -5 21 -8 30 -7 34 1 3 9 5 8 5 -1 1 -7 -9 -17
-21 -22 -23 -9 -21 -9 28 -15 12 -1 26 -5 33 -9 6 -4 11 -2 11 3 0 6 -4 11
-10 11 -5 0 -10 4 -10 10 0 5 7 7 15 4 8 -4 15 -15 15 -25 0 -29 40 -25 41 4
1 18 3 16 9 -8 7 -28 8 -29 10 -5 l2 25 7 -25 c5 -18 14 -25 33 -25 15 -1 24
3 22 7 -3 4 -14 8 -25 8 -10 0 -19 5 -19 11 0 6 7 8 16 5 9 -3 22 -6 30 -6 8
0 14 -8 14 -18 0 -11 8 -18 20 -19 11 -1 19 1 17 5 -2 7 7 12 22 12 5 0 11 -9
14 -20 7 -27 35 -25 40 3 4 18 4 17 6 -6 0 -16 5 -26 10 -22 5 3 12 1 16 -5 3
-5 11 -10 17 -10 7 0 6 6 -2 15 -10 13 -9 15 11 15 34 0 51 -14 47 -36 -3 -18
-37 -11 -485 100 -463 114 -483 120 -483 142 0 20 -4 22 -32 18 -51 -8 -70 -6
-86 10 -20 19 -7 39 18 26 10 -5 36 -12 57 -14z m798 4 c3 -5 1 -10 -4 -10 -6
0 -11 5 -11 10 0 6 2 10 4 10 3 0 8 -4 11 -10z m45 -20 c0 -5 -5 -10 -11 -10
-5 0 -7 5 -4 10 3 6 8 10 11 10 2 0 4 -4 4 -10z m81 -16 c44 -7 47 -11 22 -30
-24 -18 -54 -18 -47 0 3 8 1 17 -5 21 -6 3 -11 1 -11 -4 0 -6 -7 -11 -15 -11
-9 0 -15 9 -15 21 0 15 4 19 16 15 9 -3 33 -9 55 -12z m-1131 -25 c0 -12 -5
-16 -15 -13 -8 4 -15 12 -15 18 0 7 7 13 15 13 8 0 15 -8 15 -18z m1220 13 c0
-4 -9 -13 -20 -20 -16 -10 -20 -10 -20 2 0 8 6 17 13 19 19 8 27 8 27 -1z
m-1146 -18 c9 -3 16 -13 16 -21 0 -11 -5 -13 -17 -7 -10 4 -28 8 -39 8 -13 1
-20 6 -17 14 5 13 31 16 57 6z m1216 -5 c3 -5 26 -10 50 -11 25 -2 51 -7 57
-11 7 -4 35 -15 63 -23 40 -12 50 -19 50 -36 0 -17 -3 -19 -12 -10 -7 7 -22
12 -35 12 -13 0 -23 5 -23 10 0 6 -11 10 -25 10 -16 0 -25 6 -25 15 0 8 -7 15
-15 15 -8 0 -15 -6 -15 -14 0 -11 -8 -12 -37 -5 -21 5 -54 9 -73 9 -19 0 -30
4 -24 8 6 4 13 14 16 23 6 16 39 22 48 8z m596 -16 c-3 -8 -6 -28 -6 -44 0
-22 -5 -29 -20 -29 -17 0 -19 6 -17 43 1 23 6 45 11 49 15 10 38 -3 32 -19z
m-1670 -8 c11 -1 24 -4 30 -7 5 -3 33 -13 63 -23 33 -11 49 -20 41 -25 -15 -9
-6 -15 43 -28 39 -11 49 -1 20 18 -15 10 -14 10 7 5 14 -4 31 -7 38 -7 6 -1
12 -5 12 -10 0 -4 -6 -8 -12 -8 -17 -1 17 -20 42 -25 11 -2 20 0 20 6 0 5 12
9 28 8 24 0 25 -1 7 -9 -19 -7 -18 -9 8 -19 36 -14 79 -15 57 -2 -8 6 -18 7
-22 5 -4 -3 -8 0 -8 6 0 6 10 8 28 4 38 -9 42 -13 35 -29 -4 -11 2 -15 20 -15
14 0 28 7 31 17 6 15 8 15 16 3 6 -8 10 -10 10 -4 0 7 11 9 25 6 18 -3 25 -11
25 -27 0 -14 7 -25 20 -28 15 -4 20 0 20 14 0 11 7 19 16 19 8 0 12 -5 9 -10
-3 -6 1 -18 11 -27 16 -16 16 -16 10 5 -6 18 -3 22 13 22 12 0 21 -4 21 -10 0
-5 -6 -7 -14 -4 -10 4 -12 -2 -8 -22 4 -22 2 -25 -14 -20 -18 5 -539 136 -596
150 -21 5 -28 12 -28 30 0 22 -3 23 -50 18 -32 -3 -55 0 -65 8 -27 23 -17 32
28 24 23 -4 51 -8 63 -9z m734 11 c0 -3 -4 -8 -10 -11 -5 -3 -10 -1 -10 4 0 6
5 11 10 11 6 0 10 -2 10 -4z m-981 -57 c5 7 14 10 20 7 31 -20 -8 -39 -46 -22
-24 10 -28 18 -16 30 4 4 13 -1 21 -11 10 -15 14 -15 21 -4z m1191 1 c0 -5 -2
-10 -4 -10 -3 0 -8 5 -11 10 -3 6 -1 10 4 10 6 0 11 -4 11 -10z m-343 -22 c-3
-8 -6 -5 -6 6 -1 11 2 17 5 13 3 -3 4 -12 1 -19z m791 16 c26 -7 29 -31 5 -36
-38 -7 -73 4 -73 23 0 20 24 24 68 13z m-303 -24 c3 -5 -3 -10 -14 -10 -12 0
-21 5 -21 10 0 6 6 10 14 10 8 0 18 -4 21 -10z m-785 -9 c0 -6 -9 -9 -20 -8
-11 1 -20 5 -20 9 0 4 9 8 20 8 11 0 20 -4 20 -9z m370 -1 c0 -5 -2 -10 -4
-10 -3 0 -8 5 -11 10 -3 6 -1 10 4 10 6 0 11 -4 11 -10z m535 -27 c33 -8 71
-14 85 -14 42 2 6 -21 -47 -29 -36 -6 -50 -4 -56 6 -4 7 -14 11 -21 8 -15 -6
-56 29 -56 47 0 7 7 8 18 4 9 -3 44 -13 77 -22z m-1506 -7 c7 -8 21 -12 33 -8
15 3 19 1 16 -9 -9 -26 -98 -6 -98 22 0 14 36 10 49 -5z m771 -12 c0 -8 -4
-12 -10 -9 -5 3 -10 13 -10 21 0 8 5 12 10 9 6 -3 10 -13 10 -21z m410 -4 c0
-5 -4 -10 -10 -10 -5 0 -10 5 -10 10 0 6 5 10 10 10 6 0 10 -4 10 -10z m50 -4
c0 -3 -4 -8 -10 -11 -5 -3 -10 -1 -10 4 0 6 5 11 10 11 6 0 10 -2 10 -4z m462
-18 c18 -29 8 -38 -37 -36 -25 2 -45 6 -45 11 0 4 5 7 10 7 6 0 10 9 10 20 0
17 5 19 27 16 14 -3 30 -11 35 -18z m-362 -8 c0 -5 -4 -10 -10 -10 -5 0 -10 5
-10 10 0 6 5 10 10 10 6 0 10 -4 10 -10z m107 -32 c18 -5 37 -7 42 -4 5 4 13
1 16 -5 4 -6 18 -8 31 -5 28 7 33 -8 7 -19 -28 -12 -113 -16 -113 -6 0 5 -16
12 -35 15 -26 5 -35 12 -35 27 0 21 12 20 87 -3z m-344 -11 c41 -10 47 -14 46
-36 0 -24 -1 -24 -9 -6 -5 12 -9 14 -9 6 -1 -8 -4 -11 -8 -8 -3 4 -12 2 -20
-4 -10 -9 -13 -7 -13 10 0 18 -4 20 -25 15 -20 -5 -25 -2 -25 12 0 16 -2 17
-10 4 -8 -12 -10 -10 -10 9 0 18 4 22 18 16 9 -5 38 -13 65 -18z m-1088 -7
c19 -20 15 -24 -20 -20 -22 2 -45 18 -45 31 0 17 47 9 65 -11z m120 -23 c22
-5 57 -16 78 -24 21 -7 43 -11 48 -8 5 4 9 1 9 -4 0 -6 13 -11 29 -11 16 0 45
-7 64 -15 20 -8 42 -12 50 -9 16 6 44 -23 33 -33 -4 -4 -11 -1 -17 7 -7 13
-10 13 -18 1 -6 -10 -19 -11 -52 -5 -24 5 -51 8 -59 9 -8 0 -25 6 -37 13 -12
6 -28 12 -37 12 -8 0 -21 8 -28 18 -10 12 -28 17 -71 18 -62 1 -84 12 -73 39
4 12 12 15 24 10 9 -4 35 -12 57 -18z m1070 13 c3 -5 1 -10 -4 -10 -6 0 -11 5
-11 10 0 6 2 10 4 10 3 0 8 -4 11 -10z m430 -10 c3 -5 17 -10 31 -10 26 0 43
-25 28 -40 -5 -4 -40 -3 -79 4 -45 7 -64 14 -52 19 9 3 17 13 17 22 0 17 45
21 55 5z m-455 -10 c0 -5 -4 -10 -10 -10 -5 0 -10 5 -10 10 0 6 5 10 10 10 6
0 10 -4 10 -10z m90 -5 c0 -6 15 -10 33 -10 17 0 47 -5 66 -12 18 -7 42 -13
53 -13 17 0 18 -3 8 -15 -10 -12 -6 -13 24 -8 34 5 36 4 36 -21 0 -14 -4 -26
-10 -26 -5 0 -10 5 -10 10 0 6 -6 10 -13 10 -20 0 -87 37 -80 44 4 3 -1 6 -9
6 -9 0 -18 -5 -20 -11 -3 -8 -14 -8 -43 0 -22 6 -56 11 -75 12 -19 1 -27 3
-17 6 9 2 17 12 17 22 0 10 8 17 20 17 11 0 20 -5 20 -11z m-1249 -55 c5 0 9
-10 9 -22 0 -19 -2 -20 -10 -8 -5 8 -10 11 -10 6 0 -12 -30 14 -30 26 0 6 7 7
16 4 9 -3 20 -6 25 -6z m104 -26 c25 -8 55 -12 65 -9 15 5 23 0 29 -17 6 -13
10 -18 10 -11 1 9 10 9 34 2 17 -6 41 -12 52 -14 11 -1 23 -3 28 -4 9 -1 10
-31 1 -31 -4 0 -13 8 -20 18 -13 16 -13 16 -14 -1 0 -14 -5 -17 -22 -11 -22 7
-47 11 -76 13 -9 1 -11 8 -7 23 6 18 5 20 -11 13 -42 -19 -134 2 -134 30 0 19
8 19 65 -1z m1488 -1 c31 -3 57 -9 57 -13 0 -10 -88 -22 -115 -16 -11 3 -23 5
-27 5 -5 1 -8 10 -8 22 0 16 4 19 18 14 9 -4 43 -9 75 -12z m-1563 -93 c5 0
10 5 12 10 5 16 68 -9 68 -27 0 -11 -5 -13 -17 -8 -10 4 -29 10 -43 14 -14 3
-34 12 -45 18 -17 11 -18 14 -5 23 11 7 16 5 18 -10 2 -11 7 -20 12 -20z m252
-46 c14 -8 33 -14 42 -14 17 0 22 -25 7 -34 -14 -9 -71 15 -71 29 0 9 -15 12
-49 12 -48 -1 -81 14 -81 37 0 15 108 -7 152 -30z m-275 -36 c-3 -7 -5 -2 -5
12 0 14 2 19 5 13 2 -7 2 -19 0 -25z m91 -22 c4 -17 -13 -22 -23 -6 -3 6 -17
10 -31 10 -28 0 -33 17 -6 22 26 6 57 -7 60 -26z m310 21 c6 -5 16 -6 21 -2
14 8 61 -16 61 -32 0 -7 -5 -13 -11 -13 -5 0 -7 5 -4 10 3 6 4 10 1 10 -2 0
-12 3 -20 6 -12 5 -15 2 -10 -10 6 -14 2 -16 -22 -10 -43 10 -64 23 -64 39 0
15 25 16 48 2z m-116 -59 c34 -11 61 -48 35 -48 -30 0 -77 26 -77 42 0 14 -4
17 -17 10 -40 -20 -113 2 -113 33 0 12 81 -5 172 -37z m266 25 c12 -3 22 -9
22 -14 0 -5 9 -9 20 -9 11 0 20 -4 20 -9 0 -4 15 -7 34 -6 32 3 33 2 18 -14
-10 -9 -20 -13 -23 -9 -3 5 -13 6 -23 2 -11 -4 -16 -2 -14 6 2 8 -11 12 -42
12 -51 1 -70 11 -70 40 0 15 4 18 18 13 9 -4 27 -10 40 -12z m-558 -44 c0 -18
-2 -20 -15 -9 -13 11 -13 15 -3 21 18 12 18 12 18 -12z m71 -9 c10 -6 19 -17
19 -25 0 -17 -16 -20 -25 -5 -3 6 -17 10 -31 10 -25 0 -33 15 -11 23 19 8 27
8 48 -3z m327 -3 c6 -5 16 -6 21 -3 5 3 11 -5 13 -19 6 -29 6 -28 -44 -14 -27
7 -38 15 -38 29 0 20 21 23 48 7z m342 -18 c0 -5 -4 -9 -10 -9 -5 0 -10 7 -10
16 0 8 5 12 10 9 6 -3 10 -10 10 -16z m-495 -31 c6 -3 38 -14 72 -23 43 -12
63 -23 66 -36 6 -24 5 -24 -76 2 -39 12 -67 26 -67 34 0 9 -13 14 -37 13 -61
0 -93 13 -93 36 0 10 14 9 63 -4 34 -8 67 -18 72 -22z m215 31 c0 -7 10 -9 25
-5 14 4 25 2 25 -3 0 -4 12 -8 26 -8 15 0 29 -5 33 -10 3 -5 15 -13 26 -17
l20 -8 -20 -8 c-11 -4 -22 -5 -25 -1 -3 3 -22 7 -43 8 -37 2 -46 8 -76 46 -9
11 -10 17 -2 17 6 0 11 -5 11 -11z m250 -5 c0 -2 -9 -4 -20 -4 -11 0 -20 4
-20 9 0 5 9 7 20 4 11 -3 20 -7 20 -9z m-755 -44 c3 -5 13 -6 22 -3 11 4 14 2
11 -8 -6 -17 -37 -13 -58 7 -12 12 -12 14 2 14 9 0 19 -4 23 -10z m706 -20
c-17 -18 -41 -16 -41 4 0 6 13 11 29 12 26 1 27 0 12 -16z m-213 -24 c7 -4 19
-5 27 -2 11 4 15 -2 15 -19 0 -29 -8 -30 -55 -11 -23 10 -33 20 -29 29 6 16
20 17 42 3z m277 4 c3 -5 1 -10 -4 -10 -6 0 -11 5 -11 10 0 6 2 10 4 10 3 0 8
-4 11 -10z m-30 -10 c3 -5 1 -10 -4 -10 -6 0 -11 5 -11 10 0 6 2 10 4 10 3 0
8 -4 11 -10z m-156 -16 c18 11 61 -13 61 -34 0 -30 -35 -25 -70 9 -30 28 -43
54 -15 31 8 -6 18 -9 24 -6z m-626 -8 c4 -9 14 -12 26 -9 19 5 28 -6 15 -19
-9 -10 -74 15 -74 29 0 17 26 17 33 -1z m777 -43 c0 -8 5 -11 10 -8 6 3 10 -1
10 -9 0 -9 7 -16 15 -16 8 0 15 5 15 11 0 8 4 9 13 0 8 -6 17 -7 22 -3 4 4 6
1 4 -6 -3 -8 -8 -13 -12 -13 -4 1 -18 1 -31 1 -14 0 -31 7 -39 15 -8 8 -17 11
-20 8 -3 -3 -17 -3 -31 1 -17 4 -23 11 -19 24 3 14 12 17 34 14 17 -2 29 -10
29 -19z m-830 -33 c0 -5 11 -10 25 -10 14 0 25 -5 25 -11 0 -7 -9 -9 -22 -5
-13 3 -28 6 -34 6 -7 0 -14 7 -18 15 -3 9 0 15 9 15 8 0 15 -4 15 -10z m957
-32 c-3 -7 -5 -2 -5 12 0 14 2 19 5 13 2 -7 2 -19 0 -25z m28 13 c3 -5 1 -12
-5 -16 -5 -3 -10 1 -10 9 0 18 6 21 15 7z m-984 -71 c5 0 9 -4 9 -10 0 -14
-13 -12 -36 6 -17 14 -17 15 -1 10 10 -3 23 -6 28 -6z m74 -30 c-3 -5 -13 -10
-21 -10 -8 0 -14 5 -14 10 0 6 9 10 21 10 11 0 17 -4 14 -10z m118 -22 c15 -7
27 -20 28 -28 0 -10 2 -11 6 -2 2 6 9 12 14 12 6 0 7 -5 3 -11 -4 -8 1 -9 15
-4 17 5 24 2 28 -13 6 -23 52 -39 63 -22 6 9 13 9 28 1 12 -6 38 -15 59 -19
28 -6 37 -13 35 -25 -2 -12 4 -17 18 -17 13 0 19 4 14 11 -4 8 1 9 17 3 13 -4
31 -8 39 -9 8 -1 22 -5 30 -8 8 -3 50 -18 93 -33 70 -24 97 -43 65 -45 -7 0
25 -14 72 -30 62 -21 87 -26 95 -18 7 9 5 10 -7 6 -9 -3 -19 0 -22 8 -4 11 1
12 26 3 22 -8 26 -13 16 -19 -11 -7 -10 -11 2 -19 23 -15 38 -12 43 8 4 13 5
13 6 -4 1 -17 10 -23 38 -29 20 -4 46 -13 57 -21 29 -20 36 -18 36 13 0 14 3
23 7 19 4 -4 8 -17 8 -29 0 -30 32 -35 38 -5 4 21 4 21 6 -4 1 -27 30 -46 51
-33 5 3 10 1 10 -4 0 -19 20 -12 21 7 1 11 4 9 9 -8 7 -21 8 -22 10 -5 1 19 2
18 10 -2 6 -14 18 -23 30 -23 20 0 20 1 6 16 -9 8 -16 20 -16 25 0 6 7 3 16
-5 8 -9 27 -19 40 -22 16 -4 23 -12 20 -20 -3 -7 -1 -16 4 -19 6 -4 10 4 11
17 1 23 1 23 9 -2 4 -14 8 -19 9 -12 1 15 41 16 41 1 0 -5 -4 -7 -10 -4 -5 3
-10 2 -10 -3 0 -11 24 -22 48 -22 13 0 13 3 -4 16 -19 15 -19 16 1 9 11 -4 27
-9 37 -12 9 -3 19 -14 22 -26 5 -21 6 -21 19 -3 15 21 37 14 37 -12 0 -12 3
-13 12 -4 16 16 29 15 22 -1 -3 -8 7 -19 23 -27 15 -7 23 -15 16 -17 -6 -2
-245 72 -530 166 -285 93 -612 200 -727 237 -114 37 -210 74 -212 81 -15 49
-15 49 -27 32 -9 -12 -18 -14 -35 -8 -12 5 -22 13 -22 19 0 14 50 13 83 -2z
m-204 -42 c10 -12 8 -13 -8 -9 -12 3 -21 9 -21 14 0 14 16 11 29 -5z m76 -26
c-3 -5 -13 -10 -21 -10 -8 0 -14 5 -14 10 0 6 9 10 21 10 11 0 17 -4 14 -10z
m112 -32 c-17 -11 -65 -10 -72 2 -13 20 6 27 45 17 25 -7 35 -14 27 -19z
m-247 -8 c0 -5 3 -9 8 -8 13 4 52 -13 52 -23 0 -12 -6 -11 -40 6 -17 9 -30 13
-30 10 0 -4 -5 -3 -10 0 -12 7 -4 25 11 25 5 0 9 -4 9 -10z m298 1 c9 -5 38
-15 64 -21 31 -8 48 -18 51 -31 4 -16 1 -18 -21 -13 -15 4 -39 13 -54 21 -15
7 -31 13 -35 12 -21 -3 -29 3 -29 21 0 23 0 23 24 11z m178 -55 c13 2 24 0 24
-5 0 -5 23 -17 50 -26 50 -16 71 -32 28 -20 -22 6 -22 6 -4 -9 11 -9 17 -16
13 -16 -14 0 -87 43 -87 51 0 5 -7 9 -15 9 -8 0 -15 -4 -15 -10 0 -5 -8 -10
-19 -10 -15 0 -17 5 -13 28 3 15 7 22 9 15 2 -6 15 -9 29 -7z m-1209 -22 c-3
-4 -1 -16 4 -27 13 -24 -6 -40 -32 -27 -9 5 -19 6 -23 3 -3 -3 -6 5 -6 20 0
14 6 28 13 30 18 8 51 8 44 1z m109 -2 c18 -12 34 -49 34 -80 0 -24 -6 -32
-30 -41 -48 -16 -57 -7 -58 57 0 31 2 60 4 64 6 10 35 10 50 0z m1534 -32 c8
-5 12 -12 9 -15 -8 -8 -39 5 -39 16 0 11 11 11 30 -1z m-273 -37 c-3 -3 -10
-2 -16 2 -7 4 -7 10 2 20 10 11 13 11 15 -2 2 -8 1 -17 -1 -20z m20 5 c-3 -8
-6 -5 -6 6 -1 11 2 17 5 13 3 -3 4 -12 1 -19z m33 2 c0 -5 -4 -10 -10 -10 -5
0 -10 5 -10 10 0 6 5 10 10 10 6 0 10 -4 10 -10z m385 -20 c3 -5 1 -10 -4 -10
-6 0 -11 5 -11 10 0 6 2 10 4 10 3 0 8 -4 11 -10z m64 -26 c13 -12 -8 -10 -29
2 l-25 15 25 -7 c14 -3 27 -8 29 -10z m-1659 -10 c0 -11 -5 -14 -16 -10 -9 3
-20 6 -25 6 -5 0 -9 5 -9 10 0 6 11 10 25 10 16 0 25 -6 25 -16z m68 -22 c3
-9 -2 -13 -14 -10 -9 1 -19 9 -22 16 -3 9 2 13 14 10 9 -1 19 -9 22 -16z
m1742 -6 c0 -8 -4 -17 -8 -20 -4 -2 -8 4 -8 15 0 10 4 19 8 19 4 0 8 -6 8 -14z
m-1602 -32 c13 -4 22 -14 22 -25 0 -23 0 -23 -50 -3 -57 23 -36 45 28 28z
m452 -184 c0 -20 -5 -30 -15 -30 -18 0 -20 31 -3 48 17 17 18 16 18 -18z m140
-40 c0 -32 -16 -48 -33 -31 -8 8 -8 11 1 11 7 0 12 11 12 25 0 31 -13 32 -28
3 -11 -23 -11 -23 -11 4 -1 29 15 40 42 26 10 -5 17 -20 17 -38z m134 -6 c20
-19 21 -58 2 -73 -12 -10 -13 -8 -9 8 3 12 2 28 -1 37 -6 16 -8 15 -21 -2 -13
-18 -14 -18 -15 -1 0 10 7 20 15 23 8 4 12 10 9 15 -8 14 3 10 20 -7z m156
-107 c0 -14 -7 -30 -15 -37 -13 -11 -18 -10 -30 6 -21 27 -19 72 3 76 23 5 42
-15 42 -45z m140 -13 c12 -30 3 -73 -16 -81 -23 -8 -44 17 -44 51 0 55 43 77
60 30z m146 -49 c16 -25 12 -79 -7 -91 -18 -11 -23 5 -9 30 14 28 7 60 -13 53
-7 -2 -11 -19 -10 -41 2 -22 -1 -34 -7 -31 -14 9 -12 79 2 93 17 17 26 15 44
-13z m288 -101 c9 -3 16 -11 16 -16 0 -6 -7 -8 -15 -4 -8 3 -15 2 -15 -3 0 -5
10 -11 22 -14 21 -6 21 -7 4 -26 -13 -14 -14 -20 -5 -23 8 -3 9 -7 3 -11 -5
-3 -16 -2 -24 3 -12 7 -12 12 -2 22 15 15 16 28 2 28 -5 0 -10 -7 -10 -15 0
-8 -5 -15 -11 -15 -6 0 -8 7 -5 16 3 9 9 27 12 40 7 27 6 26 28 18z m143 -40
c-3 -3 -12 -4 -19 -1 -8 3 -5 6 6 6 11 1 17 -2 13 -5z m23 -59 c0 -4 -7 -5
-15 -1 -8 3 -15 0 -15 -6 0 -6 -2 -9 -5 -7 -2 3 -2 15 1 27 5 18 8 19 20 7 8
-7 14 -17 14 -20z m155 1 c19 -8 35 -22 35 -30 0 -13 -4 -12 -20 4 -11 11 -29
20 -40 20 -11 0 -20 5 -20 10 0 13 4 13 45 -4z m-20 -46 c-7 -21 10 -28 18 -7
3 6 6 2 6 -10 1 -17 -5 -23 -19 -23 -14 0 -20 7 -20 23 0 22 7 37 17 37 3 0 1
-9 -2 -20z m-28 -12 c-3 -8 -6 -5 -6 6 -1 11 2 17 5 13 3 -3 4 -12 1 -19z m70
-40 c-3 -7 -5 -2 -5 12 0 14 2 19 5 13 2 -7 2 -19 0 -25z m-7 -26 c3 -3 -8 -2
-25 2 -16 4 -34 12 -40 17 -5 5 6 4 25 -2 19 -7 37 -14 40 -17z m330 -10 c19
-16 21 -24 15 -61 -8 -50 -24 -59 -59 -35 -23 14 -26 21 -20 53 4 20 7 42 7
49 0 18 31 15 57 -6z m-155 -110 c-6 -6 -96 27 -110 40 -5 5 18 -1 52 -13 35
-13 60 -25 58 -27z m490 -21 c24 -15 30 -24 28 -51 -2 -49 -17 -58 -58 -36
-37 20 -45 49 -25 87 13 23 16 23 55 0z m200 -91 c12 -23 13 -34 3 -55 -10
-23 -16 -26 -42 -21 -36 8 -36 7 -42 41 -6 31 19 65 47 65 10 0 25 -13 34 -30z
m185 -51 c14 -34 1 -73 -29 -84 -19 -7 -51 28 -51 57 0 60 58 81 80 27z
m-3933 -335 c-3 -3 -12 -4 -19 -1 -8 3 -5 6 6 6 11 1 17 -2 13 -5z m-1117 -24
c0 -5 -4 -10 -10 -10 -5 0 -10 5 -10 10 0 6 5 10 10 10 6 0 10 -4 10 -10z
m6040 -44 c0 -13 -6 -26 -12 -29 -21 -7 -48 12 -48 33 0 16 7 20 30 20 25 0
30 -4 30 -24z m-6395 -106 c3 -5 -1 -10 -9 -10 -9 0 -16 5 -16 10 0 6 4 10 9
10 6 0 13 -4 16 -10z m1852 -26 c-3 -3 -12 -4 -19 -1 -8 3 -5 6 6 6 11 1 17
-2 13 -5z m400 -200 c-3 -3 -12 -4 -19 -1 -8 3 -5 6 6 6 11 1 17 -2 13 -5z
m313 -74 c0 -5 -10 -10 -22 -10 -19 0 -20 2 -8 10 19 13 30 13 30 0z m-105
-30 c-3 -5 -11 -10 -16 -10 -6 0 -7 5 -4 10 3 6 11 10 16 10 6 0 7 -4 4 -10z
m325 -80 c0 -5 -8 -10 -17 -10 -15 0 -16 2 -3 10 19 12 20 12 20 0z m-610 -20
c0 -5 -4 -10 -10 -10 -5 0 -10 5 -10 10 0 6 5 10 10 10 6 0 10 -4 10 -10z
m507 -16 c-3 -3 -12 -4 -19 -1 -8 3 -5 6 6 6 11 1 17 -2 13 -5z m128 -74 c3
-5 2 -10 -4 -10 -5 0 -13 5 -16 10 -3 6 -2 10 4 10 5 0 13 -4 16 -10z m205 0
c0 -5 -4 -10 -10 -10 -5 0 -10 5 -10 10 0 6 5 10 10 10 6 0 10 -4 10 -10z"/>
<path d="M6618 5123 c7 -3 16 -2 19 1 4 3 -2 6 -13 5 -11 0 -14 -3 -6 -6z"/>
<path d="M7028 4873 c7 -3 16 -2 19 1 4 3 -2 6 -13 5 -11 0 -14 -3 -6 -6z"/>
<path d="M7335 4830 c3 -5 18 -10 33 -9 24 0 25 1 7 9 -28 12 -47 12 -40 0z"/>
<path d="M6242 4061 c-11 -7 -11 -9 2 -14 10 -4 16 -1 16 8 0 17 -1 17 -18 6z"/>
<path d="M6440 3825 c0 -8 2 -15 4 -15 2 0 6 7 10 15 3 8 1 15 -4 15 -6 0 -10
-7 -10 -15z"/>
<path d="M6131 3701 c-10 -7 -8 -10 8 -16 27 -8 36 -2 18 13 -7 6 -18 7 -26 3z"/>
<path d="M6867 3531 c3 -12 10 -21 15 -21 13 0 6 32 -9 37 -7 3 -9 -3 -6 -16z"/>
<path d="M7045 3480 c3 -5 13 -10 21 -10 8 0 14 5 14 10 0 6 -9 10 -21 10 -11
0 -17 -4 -14 -10z"/>
<path d="M6110 3606 c0 -9 30 -14 35 -6 4 6 -3 10 -14 10 -12 0 -21 -2 -21 -4z"/>
<path d="M6318 3553 c6 -2 18 -2 25 0 6 3 1 5 -13 5 -14 0 -19 -2 -12 -5z"/>
<path d="M6115 3510 c3 -5 11 -10 16 -10 6 0 7 5 4 10 -3 6 -11 10 -16 10 -6
0 -7 -4 -4 -10z"/>
<path d="M6420 3440 c0 -5 5 -10 11 -10 5 0 7 5 4 10 -3 6 -8 10 -11 10 -2 0
-4 -4 -4 -10z"/>
<path d="M6480 3420 c0 -5 9 -10 21 -10 11 0 17 5 14 10 -3 6 -13 10 -21 10
-8 0 -14 -4 -14 -10z"/>
<path d="M6105 3420 c3 -5 10 -10 16 -10 5 0 9 5 9 10 0 6 -7 10 -16 10 -8 0
-12 -4 -9 -10z"/>
<path d="M6385 3350 c3 -5 8 -10 11 -10 2 0 4 5 4 10 0 6 -5 10 -11 10 -5 0
-7 -4 -4 -10z"/>
<path d="M6425 3340 c3 -5 11 -10 16 -10 6 0 7 5 4 10 -3 6 -11 10 -16 10 -6
0 -7 -4 -4 -10z"/>
<path d="M6095 3330 c3 -5 11 -10 16 -10 6 0 7 5 4 10 -3 6 -11 10 -16 10 -6
0 -7 -4 -4 -10z"/>
<path d="M6560 3216 c0 -8 7 -16 15 -20 10 -4 15 1 15 14 0 11 -7 20 -15 20
-8 0 -15 -6 -15 -14z"/>
<path d="M6260 2820 c0 -5 5 -10 10 -10 6 0 10 5 10 10 0 6 -4 10 -10 10 -5 0
-10 -4 -10 -10z"/>
<path d="M6295 2620 c3 -5 14 -10 23 -10 15 0 15 2 2 10 -20 13 -33 13 -25 0z"/>
<path d="M6400 2590 c0 -5 7 -10 15 -10 8 0 15 5 15 10 0 6 -7 10 -15 10 -8 0
-15 -4 -15 -10z"/>
<path d="M6175 2270 c3 -5 10 -10 16 -10 5 0 9 5 9 10 0 6 -7 10 -16 10 -8 0
-12 -4 -9 -10z"/>
<path d="M6210 2261 c0 -4 11 -13 25 -19 31 -14 35 -15 35 -3 0 5 -13 14 -30
20 -16 5 -30 6 -30 2z"/>
<path d="M6305 2224 c22 -16 35 -18 35 -5 0 5 -12 11 -27 14 -26 5 -26 4 -8
-9z"/>
<path d="M6212 1683 c2 -14 9 -28 16 -31 18 -6 15 45 -4 52 -12 5 -15 0 -12
-21z"/>
</g>
</svg>
