<?xml version="1.0" standalone="no"?>
<!DOCTYPE svg PUBLIC "-//W3C//DTD SVG 20010904//EN"
 "http://www.w3.org/TR/2001/REC-SVG-20010904/DTD/svg10.dtd">
<svg version="1.0" xmlns="http://www.w3.org/2000/svg"
 width="612.000000pt" height="408.000000pt" viewBox="0 0 612.000000 408.000000"
 preserveAspectRatio="xMidYMid meet">

<g transform="translate(0.000000,408.000000) scale(0.100000,-0.100000)"
fill="#000000" stroke="none">
<path d="M0 3690 c0 -375 1 -390 19 -390 10 0 24 -7 31 -15 13 -16 20 -128 9
-139 -3 -4 -18 -2 -33 3 l-26 11 0 -508 c0 -313 4 -501 10 -492 6 10 38 16
112 21 57 4 141 17 188 28 47 12 123 28 170 37 47 8 89 19 95 23 33 27 258 52
725 81 236 14 307 26 322 53 11 22 7 153 -12 316 -6 55 -6 91 1 103 13 25 48
46 84 50 26 3 33 -2 48 -32 16 -32 17 -54 11 -246 -6 -201 -6 -212 12 -222 19
-10 282 -14 316 -5 16 4 16 7 3 26 -23 36 14 67 79 67 51 0 85 16 92 44 3 13
14 32 25 42 15 13 17 25 12 57 -7 48 15 74 49 56 16 -9 18 -17 13 -52 -6 -35
-3 -46 14 -61 12 -11 21 -27 21 -36 0 -27 20 -37 86 -43 103 -11 136 -36 99
-77 -14 -16 -11 -18 42 -22 32 -3 85 -2 118 2 59 7 471 -2 737 -16 l137 -7 3
-26 c2 -14 13 24 26 84 26 124 45 175 66 175 8 0 19 15 25 33 11 35 161 665
169 710 2 16 11 27 21 27 9 0 81 -14 161 -30 193 -40 858 -172 1040 -205 80
-15 149 -31 153 -35 5 -4 -17 -113 -48 -241 -31 -129 -112 -466 -181 -749 -68
-283 -131 -545 -140 -582 -9 -38 -21 -68 -26 -68 -9 0 -139 48 -578 215 -63
24 -250 94 -415 155 -165 61 -303 116 -306 122 -4 5 2 42 12 82 21 81 23 100
9 91 -5 -3 -10 2 -11 12 0 10 -11 -22 -23 -72 -12 -49 -28 -100 -34 -112 -7
-12 -10 -28 -7 -35 3 -8 70 -38 148 -67 345 -130 547 -213 541 -223 -4 -7 -2
-8 5 -4 15 9 53 -3 46 -15 -3 -5 0 -6 8 -3 8 3 30 -2 48 -10 19 -9 24 -13 11
-10 -43 10 -21 -3 48 -30 38 -15 75 -24 81 -20 7 4 9 3 6 -3 -8 -13 159 -77
175 -67 6 4 8 3 4 -4 -8 -13 29 -26 45 -16 8 5 9 3 4 -6 -5 -9 -2 -10 13 -6
15 5 20 3 18 -8 -1 -9 -5 -19 -9 -22 -14 -15 -6 -24 21 -25 39 0 116 -34 120
-52 4 -19 -8 -21 -283 -52 -121 -14 -308 -37 -415 -51 -440 -57 -735 -94 -911
-114 l-185 -21 -97 49 c-53 26 -94 52 -90 55 3 4 -4 7 -16 7 -24 0 -70 26 -88
51 -12 17 -57 34 -48 19 3 -4 -6 -3 -19 3 -13 7 -22 15 -20 19 3 4 -1 5 -9 2
-13 -5 -643 309 -730 363 -22 14 -42 22 -45 18 -4 -4 1 -11 11 -16 11 -7 16
-17 12 -29 -4 -14 5 -26 37 -48 41 -28 334 -179 493 -254 87 -40 110 -58 93
-70 -10 -6 -8 -8 5 -8 9 0 139 -61 288 -136 254 -128 272 -136 312 -129 83 13
149 11 157 -5 34 -69 29 -100 -20 -125 -27 -14 -28 -18 -18 -40 9 -19 9 -28 0
-37 -7 -7 -12 -16 -12 -20 0 -5 42 -29 93 -54 113 -55 128 -68 106 -90 -15
-14 -20 -14 -55 1 -21 9 -70 27 -109 40 -38 13 -79 27 -89 31 -14 5 -17 4 -12
-4 9 -15 38 -27 234 -103 165 -63 212 -90 212 -120 0 -27 -18 -25 -182 21
-366 104 -710 209 -1274 391 -204 65 -377 119 -385 119 -8 0 -131 38 -274 84
-143 46 -327 105 -410 131 -352 109 -268 96 219 -35 43 -11 80 -19 82 -17 2 2
-96 32 -219 67 -305 86 -537 163 -509 168 23 4 30 26 11 38 -6 3 -28 1 -49 -6
-26 -9 -46 -9 -66 -3 -27 10 -26 10 26 18 30 4 89 18 130 31 41 12 129 30 195
39 139 19 256 43 270 56 5 5 -2 9 -18 9 -20 0 -27 5 -27 20 0 11 -7 23 -15 26
-8 4 -15 15 -15 25 0 16 -11 19 -107 22 -72 2 -100 6 -85 11 24 9 30 26 9 26
-22 0 -65 87 -87 179 -5 19 -14 37 -20 41 -30 18 -7 128 34 162 20 17 17 18
-79 18 -111 0 -269 22 -291 41 -11 9 -14 8 -14 -4 0 -8 6 -20 14 -26 8 -7 17
-28 21 -49 9 -47 33 -94 45 -87 6 4 10 -7 10 -24 0 -16 5 -33 10 -36 6 -3 10
-21 10 -38 1 -18 9 -57 20 -87 11 -30 19 -60 20 -65 0 -6 -37 -16 -82 -23 -69
-10 -94 -9 -146 3 -35 8 -72 20 -83 25 -12 7 -19 7 -19 1 0 -5 8 -12 19 -16
10 -3 25 -13 34 -23 14 -16 12 -17 -27 -19 -53 -2 -148 -37 -171 -63 -17 -19
-17 -21 -2 -38 10 -10 17 -21 17 -24 0 -16 -82 -18 -129 -4 l-51 15 0 -770 0
-769 3060 0 3060 0 0 555 0 554 -37 6 c-21 4 -54 11 -73 16 -19 5 -48 9 -65 9
-16 0 -55 12 -85 26 -36 17 -65 24 -88 21 -41 -6 -98 9 -105 27 -3 7 -25 23
-49 34 -37 18 -55 21 -128 16 -76 -5 -103 -2 -255 34 -93 23 -196 46 -227 54
-32 7 -58 18 -58 25 0 42 160 697 190 776 18 47 25 57 38 51 10 -4 60 -13 112
-20 115 -15 290 -48 425 -79 55 -12 125 -23 155 -24 30 -1 69 -6 85 -11 17 -6
60 -18 98 -29 l67 -19 0 198 0 198 -40 -19 c-21 -10 -44 -19 -50 -19 -6 0 -24
-7 -40 -15 -17 -9 -30 -11 -30 -6 0 15 72 68 118 86 l42 17 0 809 0 809 -1795
0 -1794 0 -23 -31 c-27 -36 -77 -69 -106 -69 -23 0 -41 -26 -53 -75 -7 -29 -8
-29 -14 -7 -6 18 -10 20 -21 11 -11 -9 -14 -8 -14 5 0 29 -39 95 -78 131 l-37
34 -1092 1 -1093 0 0 -390z m4156 -250 c298 -60 640 -124 914 -171 142 -24
251 -47 260 -55 20 -19 18 -19 -217 26 -310 59 -850 155 -1003 179 -74 12
-147 24 -161 27 -19 4 -35 -2 -59 -22 l-33 -28 8 25 c11 37 35 59 65 59 14 0
116 -18 226 -40z m-1845 -237 c0 -27 4 -66 8 -88 l9 -40 1 45 c2 53 14 80 27
59 10 -17 19 -358 10 -394 -7 -27 -40 -35 -49 -12 -3 7 -6 5 -6 -5 -2 -39 -19
-15 -25 35 -8 67 -8 361 0 410 9 52 24 46 25 -10z m124 -126 c18 -59 45 -265
37 -285 -2 -8 -16 -18 -30 -23 -42 -16 -51 10 -53 151 -2 136 -1 163 6 198 8
33 22 19 40 -41z m-405 -67 c14 -11 34 -20 46 -20 31 0 58 -34 50 -65 -5 -19
-3 -25 10 -25 26 0 12 -42 -22 -62 -17 -10 -55 -20 -85 -22 -30 -2 -57 -4 -61
-5 -5 -1 -8 -8 -8 -16 0 -11 -12 -15 -45 -15 -25 0 -45 5 -45 10 0 6 8 10 17
10 13 0 14 3 5 12 -21 21 -13 28 37 28 40 0 50 3 54 20 3 11 2 20 -1 21 -76 9
-98 21 -106 55 -8 30 4 48 49 76 39 23 74 23 105 -2z m-35 -280 c0 -7 -6 -15
-12 -17 -8 -3 -13 4 -13 17 0 13 5 20 13 18 6 -3 12 -11 12 -18z m-45 -300 c0
-5 -4 -10 -10 -10 -5 0 -10 5 -10 10 0 6 5 10 10 10 6 0 10 -4 10 -10z m-1222
-410 c23 -21 26 -37 16 -64 -6 -16 -35 -23 -33 -8 4 22 -2 42 -11 37 -5 -3
-10 -37 -10 -75 0 -64 2 -71 33 -103 17 -19 38 -36 46 -38 7 -3 12 -13 10 -23
-3 -16 -12 -12 -51 26 -61 60 -71 109 -42 222 5 22 3 26 -14 26 -12 0 -24 5
-27 10 -12 20 61 10 83 -10z m4072 -630 c8 -5 11 -10 5 -10 -5 0 -17 5 -25 10
-8 5 -10 10 -5 10 6 0 17 -5 25 -10z m80 -124 c0 -11 -19 -15 -25 -6 -3 5 1
10 9 10 9 0 16 -2 16 -4z m478 -48 c-5 -13 -78 -25 -358 -62 -302 -39 -449
-56 -476 -55 -58 1 114 36 306 63 518 72 534 74 528 54z m-868 -118 c0 -6 -23
-9 -52 -8 l-53 1 50 7 c28 4 51 8 53 8 1 1 2 -2 2 -8z m-243 -27 c5 -15 -17
-20 -52 -12 -23 5 -25 7 -8 8 12 0 25 6 28 12 8 12 27 7 32 -8z m123 7 c0 -5
-12 -10 -27 -10 -22 0 -25 2 -13 10 20 13 40 13 40 0z m1097 -2 c27 -10 38
-10 54 1 17 10 27 10 51 0 26 -10 27 -14 13 -22 -9 -5 -38 -10 -63 -12 -26 -1
-76 -8 -112 -14 -71 -11 -373 -25 -352 -15 6 3 12 12 12 21 0 12 9 14 51 8 42
-6 52 -4 64 11 11 16 17 16 39 6 36 -16 51 -15 70 3 13 14 22 14 56 4 35 -11
43 -10 58 4 20 20 17 20 59 5z m-482 -28 c16 -16 35 -30 43 -30 11 0 10 -3 -2
-16 -9 -8 -16 -21 -16 -28 0 -7 -10 -26 -21 -41 -24 -29 -24 -49 1 -270 12
-112 13 -245 1 -264 -6 -10 -53 -18 -162 -27 -211 -18 -352 -32 -497 -51 -152
-20 -165 -17 -295 76 -99 70 -113 79 -220 133 -45 23 -61 27 -72 18 -15 -13
-55 -5 -55 11 0 5 -7 9 -16 9 -21 0 -91 43 -190 116 -68 50 -74 57 -61 72 18
21 12 38 -21 75 -44 46 -13 51 43 7 47 -38 111 -68 121 -57 2 2 -16 27 -41 55
-49 55 -55 76 -26 92 14 7 29 6 56 -6 30 -12 42 -13 71 -2 26 9 37 9 46 0 17
-17 49 -15 76 4 23 16 52 13 52 -6 0 -5 -11 -10 -24 -10 -34 0 -40 -16 -16
-40 11 -11 20 -24 20 -30 0 -5 8 -10 18 -10 10 0 23 -5 29 -11 7 -7 47 -14 90
-17 43 -3 80 -8 83 -13 3 -4 24 -2 45 6 23 7 70 12 110 11 69 -2 105 6 105 24
0 16 -81 90 -106 96 -31 8 -26 30 7 27 37 -4 160 17 200 34 20 8 46 12 57 8
12 -3 31 0 44 9 17 11 33 13 59 7 24 -6 44 -4 59 4 17 9 33 10 57 3 27 -7 40
-6 60 7 20 14 30 15 50 6 37 -17 64 -13 70 9 6 23 21 25 59 8 24 -11 29 -10
43 9 21 30 32 28 66 -7z m-858 4 c-3 -3 -12 -4 -19 -1 -8 3 -5 6 6 6 11 1 17
-2 13 -5z m-3277 -188 c14 -1 27 -4 30 -8 3 -4 24 -14 45 -22 22 -8 33 -15 25
-15 -8 0 -53 13 -100 30 -47 16 -71 26 -55 22 17 -3 41 -7 55 -7z m187 -62
c-3 -3 -12 -4 -19 -1 -8 3 -5 6 6 6 11 1 17 -2 13 -5z m118 -44 c3 -5 15 -10
26 -10 12 0 17 5 14 11 -7 11 61 -15 79 -30 6 -5 29 -12 51 -16 22 -4 45 -11
50 -15 6 -4 22 -10 38 -14 15 -3 27 -13 27 -20 0 -12 -7 -13 -32 -5 -17 5 -36
13 -42 19 -5 5 -22 10 -36 10 -15 0 -30 3 -34 8 -4 4 -11 7 -14 7 -20 1 -162
51 -162 58 0 11 28 9 35 -3z m4583 -57 c-23 -23 -35 -27 -85 -26 -56 0 -138
14 -176 29 -40 15 11 24 148 24 l140 0 -27 -27z m-4235 -55 c12 -7 32 -11 44
-9 17 2 21 -2 17 -13 -5 -13 -11 -13 -52 0 -26 7 -48 14 -49 14 -2 0 -3 5 -3
10 0 13 17 13 43 -2z m138 -48 c32 -26 3 -27 -31 0 -19 15 -21 20 -9 20 9 0
27 -9 40 -20z m3393 5 c3 -8 1 -15 -4 -15 -6 0 -10 7 -10 15 0 8 2 15 4 15 2
0 6 -7 10 -15z m71 -15 c-3 -5 -10 -10 -16 -10 -5 0 -9 5 -9 10 0 6 7 10 16
10 8 0 12 -4 9 -10z m85 -130 c0 -5 -13 -10 -30 -10 -16 0 -30 5 -30 10 0 6
14 10 30 10 17 0 30 -4 30 -10z m-25 -400 c19 -7 18 -9 -8 -19 -34 -13 -67
-14 -87 -1 -13 8 -13 10 0 14 46 15 69 17 95 6z"/>
<path d="M3568 752 c-15 -7 -15 -8 0 -27 9 -11 42 -40 72 -65 30 -25 60 -51
66 -59 9 -11 12 -10 17 10 3 13 3 26 -2 29 -57 39 -130 103 -126 111 7 10 -2
11 -27 1z"/>
<path d="M4061 711 c-7 -12 -21 -21 -31 -21 -11 0 -20 -5 -20 -10 0 -17 31
-24 51 -12 10 7 31 9 47 6 34 -7 61 16 39 35 -8 6 -28 14 -45 17 -24 5 -32 2
-41 -15z"/>
<path d="M3920 689 c0 -5 5 -7 10 -4 6 3 10 8 10 11 0 2 -4 4 -10 4 -5 0 -10
-5 -10 -11z"/>
<path d="M717 2177 c3 -5 -5 -8 -18 -7 -38 3 -40 1 -27 -22 7 -13 11 -26 10
-30 -1 -5 9 -8 23 -8 19 0 23 4 19 18 -5 16 -5 15 6 -1 7 -11 18 -16 30 -12
10 3 20 0 23 -8 4 -10 26 -11 103 -5 149 11 244 34 244 59 0 6 -4 8 -9 5 -5
-3 -22 1 -37 9 -23 13 -62 15 -201 13 -97 -1 -169 -6 -166 -11z"/>
<path d="M3530 1855 c0 -7 11 -16 24 -19 13 -3 31 -9 40 -12 35 -14 13 12 -24
28 -31 13 -40 14 -40 3z"/>
<path d="M385 1853 c-59 -13 -115 -36 -115 -47 0 -7 -10 -18 -22 -24 -23 -11
-23 -11 4 -11 15 -1 30 4 33 9 11 18 83 50 143 64 54 14 55 14 17 14 -22 0
-49 -2 -60 -5z"/>
<path d="M3310 1749 c-14 -6 -37 -8 -51 -5 -18 3 -34 -1 -50 -14 -23 -20 -45
-27 -35 -11 3 5 -6 11 -19 14 -27 5 -52 -23 -40 -43 8 -13 -11 -13 -37 1 -11
6 -18 7 -15 1 4 -5 -5 -7 -20 -4 -18 3 -24 1 -19 -7 4 -6 15 -11 25 -11 9 0
26 -7 37 -15 10 -8 30 -15 43 -15 20 0 21 -2 11 -15 -17 -21 -42 -19 -68 5
-12 11 -35 20 -53 20 -24 0 -30 4 -25 15 6 17 -29 22 -39 5 -3 -5 1 -10 9 -10
19 0 22 -19 4 -22 -7 0 7 -4 32 -7 32 -4 44 -10 43 -21 -2 -12 7 -14 45 -11
26 2 49 7 52 11 3 4 23 4 45 0 22 -4 33 -8 25 -9 -27 -2 12 -21 45 -21 17 0
37 -5 45 -11 12 -8 10 -9 -7 -4 -19 5 -22 3 -16 -11 5 -14 3 -15 -15 -5 -11 6
-38 13 -59 15 -21 2 -47 6 -58 10 -19 7 -19 7 -1 -4 15 -10 16 -14 5 -22 -10
-7 -8 -8 8 -3 14 4 45 -6 90 -29 37 -19 64 -35 58 -36 -12 0 16 -20 30 -20 6
0 3 5 -5 11 -12 9 -12 10 3 5 10 -3 23 -6 28 -6 5 0 9 -7 9 -15 0 -11 11 -15
36 -15 46 0 83 -18 63 -31 -9 -5 9 -8 46 -6 33 2 54 2 47 0 -6 -3 -10 -9 -6
-14 3 -5 -3 -10 -13 -10 -10 -1 0 -5 22 -9 30 -7 49 -4 75 7 27 13 65 16 168
15 81 0 130 3 127 9 -9 14 28 10 48 -5 16 -13 15 -14 -10 -19 -16 -3 -47 -4
-70 -2 -27 2 -43 -1 -43 -8 0 -8 -4 -7 -12 1 -14 14 -94 16 -103 2 -3 -6 4 -9
17 -8 13 0 52 -9 87 -20 68 -23 121 -30 61 -8 -33 12 -34 13 -12 20 26 8 92 6
107 -4 16 -11 55 -19 55 -11 0 3 31 6 70 6 42 0 69 4 67 10 -2 6 -42 9 -95 8
-51 0 -92 3 -92 8 0 9 23 12 78 9 19 -1 32 3 32 11 0 9 -16 10 -59 6 -44 -5
-63 -3 -77 9 -18 14 -18 15 3 9 13 -3 31 -1 40 5 20 12 -29 9 -142 -8 -34 -5
-70 -5 -83 -1 -17 7 -21 6 -16 -3 5 -8 2 -9 -12 -4 -28 12 -55 13 -88 4 -17
-4 -37 -3 -50 4 -19 10 -20 10 -7 -5 12 -15 11 -17 -8 -17 -15 0 -20 4 -15 13
6 9 5 9 -7 0 -12 -10 -15 -8 -16 7 -2 18 4 19 58 15 53 -5 60 -3 57 12 -3 15
4 18 42 18 31 0 44 4 42 13 -2 14 14 16 22 3 10 -16 95 -41 102 -30 3 6 12 8
19 5 7 -2 23 4 35 14 15 13 33 17 61 15 23 -2 37 0 34 6 -8 12 9 12 37 -2 16
-7 31 -7 48 0 23 9 21 10 -20 12 -25 1 -54 2 -65 2 -85 -4 -113 -4 -135 1 -23
5 -23 5 3 -6 15 -7 27 -15 27 -19 0 -12 -91 -15 -118 -3 -26 11 -26 11 10 11
25 -1 42 5 51 17 7 10 20 17 28 16 27 -4 59 0 59 8 0 4 -34 7 -74 7 -58 0 -70
-2 -55 -11 28 -14 13 -24 -37 -24 -24 0 -45 -4 -48 -9 -4 -5 -33 -8 -65 -8
-33 1 -57 -1 -54 -5 2 -5 12 -8 21 -8 15 0 15 -2 2 -10 -17 -11 -70 -13 -55
-2 6 4 10 14 10 22 0 11 11 15 47 13 37 -1 46 1 41 13 -6 16 12 19 22 4 3 -5
14 -10 23 -9 14 0 13 2 -3 9 -15 7 -10 8 17 5 21 -2 40 0 43 5 9 15 -9 18 -73
10 -64 -8 -102 -4 -102 10 0 5 15 8 33 8 63 -1 77 2 75 15 -2 8 12 13 40 15
23 2 42 7 42 11 0 4 -25 4 -55 1 -30 -3 -61 -2 -70 2 -11 7 -15 4 -15 -10 0
-16 -8 -21 -39 -24 -22 -2 -37 0 -34 5 2 4 -7 6 -21 3 -14 -3 -26 0 -26 6 0 6
16 8 43 4 41 -6 69 2 68 20 -1 9 8 11 57 13 12 1 22 5 22 11 0 5 -6 7 -12 5
-7 -2 -44 -6 -81 -9 -48 -2 -67 0 -64 8 2 6 21 10 46 8 29 -2 41 0 41 10 0 10
-10 13 -35 10 -29 -4 -35 -1 -35 15 0 16 -5 19 -30 15 -21 -3 -32 0 -36 12 -4
10 -18 16 -35 16 -17 0 -32 6 -35 15 -4 8 -16 15 -29 15 -12 0 -36 7 -51 15
-33 17 -58 18 -94 4z m60 -24 c14 -8 35 -14 47 -15 12 0 28 -7 37 -15 8 -8 23
-15 33 -15 10 0 25 -5 33 -10 11 -7 6 -10 -22 -10 -20 0 -40 5 -44 11 -4 6
-20 8 -40 4 -26 -4 -33 -3 -28 8 6 17 -21 43 -31 27 -3 -5 -16 -10 -28 -9 -12
0 -16 3 -9 6 6 2 12 11 12 19 0 17 8 17 40 -1z m-77 -26 c29 -12 69 -29 89
-37 l38 -16 -32 -13 c-17 -7 -33 -11 -36 -8 -3 3 0 5 6 5 6 0 9 7 5 16 -4 11
-15 15 -39 12 -18 -2 -30 0 -28 4 7 11 -42 29 -60 22 -12 -5 -15 7 -7 34 2 5
14 1 64 -19z m-118 -19 c4 -6 11 -8 16 -5 5 3 7 0 4 -7 -6 -15 -75 -23 -75 -8
0 6 5 10 11 10 5 0 7 5 4 10 -3 6 3 10 14 10 11 0 23 -5 26 -10z m84 -31 c20
-7 45 -15 56 -20 19 -7 19 -8 -2 -8 -13 -1 -23 -5 -23 -11 0 -5 -4 -10 -10
-10 -5 0 -10 7 -10 16 0 13 -8 15 -34 12 -28 -3 -34 -1 -33 14 1 21 8 22 56 7z
m332 1 c11 0 18 -4 15 -8 -3 -5 -22 -8 -43 -6 -50 3 -50 3 -33 14 8 5 21 8 28
5 8 -3 23 -5 33 -5z m-88 -38 c7 -6 27 -13 45 -17 42 -9 35 -17 -17 -20 -30
-2 -38 1 -34 11 4 10 -5 14 -31 14 -29 0 -36 4 -36 19 0 17 4 18 31 11 17 -5
36 -13 42 -18z m-125 -8 c35 -10 27 -32 -12 -32 -25 0 -33 4 -30 13 4 8 -4 15
-18 18 -19 3 -18 4 7 6 17 0 40 -2 53 -5z m77 -34 c18 -8 18 -9 2 -9 -11 -1
-15 -6 -11 -13 4 -7 3 -8 -5 -4 -6 4 -9 12 -6 17 3 5 -1 6 -9 3 -9 -3 -16 -1
-16 5 0 13 17 13 45 1z m-112 -27 c-7 -2 -19 -2 -25 0 -7 3 -2 5 12 5 14 0 19
-2 13 -5z m74 1 c-3 -3 -12 -4 -19 -1 -8 3 -5 6 6 6 11 1 17 -2 13 -5z m87 -6
c-4 -6 3 -8 17 -4 20 6 21 5 7 -4 -13 -8 -25 -7 -45 3 l-27 15 27 0 c15 0 24
-5 21 -10z m-96 -25 c-10 -2 -26 -2 -35 0 -10 3 -2 5 17 5 19 0 27 -2 18 -5z
m197 -3 c3 -5 1 -10 -4 -10 -6 0 -11 5 -11 10 0 6 2 10 4 10 3 0 8 -4 11 -10z
m48 -7 c-7 -2 -19 -2 -25 0 -7 3 -2 5 12 5 14 0 19 -2 13 -5z m-173 -17 c0 -9
-30 -14 -35 -6 -4 6 3 10 14 10 12 0 21 -2 21 -4z m77 -2 c-3 -3 -12 -4 -19
-1 -8 3 -5 6 6 6 11 1 17 -2 13 -5z m41 -39 c4 -4 -9 -4 -28 -1 -26 5 -31 4
-20 -3 9 -7 10 -11 3 -11 -6 0 -15 5 -18 10 -3 6 -18 7 -32 4 -19 -5 -24 -4
-19 5 8 12 101 9 114 -4z"/>
<path d="M3367 1589 c7 -7 15 -10 18 -7 3 3 -2 9 -12 12 -14 6 -15 5 -6 -5z"/>
<path d="M3460 1750 c8 -5 20 -10 25 -10 6 0 3 5 -5 10 -8 5 -19 10 -25 10 -5
0 -3 -5 5 -10z"/>
<path d="M3520 1726 c0 -2 9 -6 20 -9 11 -3 18 -1 14 4 -5 9 -34 13 -34 5z"/>
<path d="M2971 1711 c-11 -7 -10 -10 5 -13 32 -6 78 3 63 13 -18 11 -50 11
-68 0z"/>
<path d="M2838 1693 c6 -2 18 -2 25 0 6 3 1 5 -13 5 -14 0 -19 -2 -12 -5z"/>
<path d="M2898 1693 c6 -2 18 -2 25 0 6 3 1 5 -13 5 -14 0 -19 -2 -12 -5z"/>
<path d="M3598 1693 c7 -3 16 -2 19 1 4 3 -2 6 -13 5 -11 0 -14 -3 -6 -6z"/>
<path d="M2898 1663 c6 -2 18 -2 25 0 6 3 1 5 -13 5 -14 0 -19 -2 -12 -5z"/>
<path d="M3663 1663 c9 -2 23 -2 30 0 6 3 -1 5 -18 5 -16 0 -22 -2 -12 -5z"/>
<path d="M1820 1630 c0 -5 14 -10 30 -10 17 0 30 5 30 10 0 6 -13 10 -30 10
-16 0 -30 -4 -30 -10z"/>
<path d="M1740 1620 c0 -9 25 -20 47 -20 8 0 13 6 11 12 -5 14 -58 22 -58 8z"/>
<path d="M1660 1600 c0 -5 16 -10 36 -10 21 0 33 4 29 10 -3 6 -19 10 -36 10
-16 0 -29 -4 -29 -10z"/>
<path d="M3803 1603 c9 -2 25 -2 35 0 9 3 1 5 -18 5 -19 0 -27 -2 -17 -5z"/>
<path d="M1580 1583 c0 -8 13 -13 36 -13 41 0 38 16 -6 22 -20 3 -30 0 -30 -9z"/>
<path d="M1502 1568 c7 -20 58 -23 58 -4 0 11 -10 16 -31 16 -20 0 -29 -4 -27
-12z"/>
<path d="M3873 1573 c9 -2 25 -2 35 0 9 3 1 5 -18 5 -19 0 -27 -2 -17 -5z"/>
<path d="M1422 1548 c5 -13 33 -19 54 -11 23 8 5 23 -27 23 -19 0 -29 -4 -27
-12z"/>
<path d="M3858 1553 c-27 -2 -48 -8 -48 -13 0 -10 78 -1 100 11 8 5 11 8 5 7
-5 -1 -31 -3 -57 -5z"/>
<path d="M1335 1541 c-14 -13 0 -21 37 -21 34 0 40 3 30 13 -13 12 -58 18 -67
8z"/>
<path d="M3948 1543 c12 -2 30 -2 40 0 9 3 -1 5 -23 4 -22 0 -30 -2 -17 -4z"/>
<path d="M3220 1510 c30 -16 60 -29 65 -29 6 0 -15 13 -45 29 -30 16 -59 29
-65 29 -5 0 15 -13 45 -29z"/>
<path d="M1250 1515 c0 -10 11 -15 35 -15 26 0 33 3 29 15 -4 9 -19 15 -35 15
-19 0 -29 -5 -29 -15z"/>
<path d="M4018 1513 c12 -2 32 -2 45 0 12 2 2 4 -23 4 -25 0 -35 -2 -22 -4z"/>
<path d="M1167 1504 c-13 -13 5 -24 38 -24 26 0 33 3 29 15 -6 15 -55 21 -67
9z"/>
<path d="M1080 1480 c0 -12 45 -24 60 -15 5 3 8 11 5 16 -8 12 -65 12 -65 -1z"/>
<path d="M994 1468 c-9 -15 4 -24 33 -22 42 2 43 3 37 18 -6 16 -61 19 -70 4z"/>
<path d="M3985 1463 c6 -5 37 -19 70 -32 33 -12 72 -29 87 -37 15 -8 53 -17
85 -19 82 -6 97 -9 105 -20 4 -6 -3 -13 -15 -17 -18 -5 -17 -6 10 -7 17 -1 44
4 60 10 22 8 24 12 13 19 -20 13 -33 12 -25 0 3 -5 -1 -10 -9 -10 -26 0 -18
17 12 28 27 10 27 10 -10 11 -20 1 -44 4 -52 7 -12 5 -15 2 -10 -10 5 -12 2
-15 -10 -10 -9 3 -16 10 -16 14 0 5 -24 6 -54 3 -31 -3 -61 -1 -72 5 -16 10
-14 11 18 12 20 0 38 5 40 11 3 9 9 9 25 0 26 -13 83 -15 83 -2 0 5 -17 9 -37
9 -21 1 -47 2 -58 3 -11 1 -45 -2 -75 -6 -43 -5 -59 -3 -75 9 -13 10 -14 14
-4 11 8 -3 27 -1 42 4 17 7 36 7 55 0 19 -6 37 -6 53 0 23 9 22 10 -11 10 -19
0 -64 0 -100 0 -36 -1 -72 -2 -80 -2 -8 0 -24 4 -35 8 -13 5 -16 4 -10 -2z"/>
<path d="M910 1447 c0 -16 34 -29 56 -20 24 9 10 28 -24 31 -23 2 -32 -1 -32
-11z"/>
<path d="M2366 1445 c6 -14 128 -85 146 -85 4 0 8 7 8 15 0 8 -30 30 -70 50
-77 39 -92 42 -84 20z"/>
<path d="M3717 1440 c14 -15 143 -24 143 -10 0 7 -26 10 -64 9 -35 -1 -70 2
-77 6 -11 6 -11 5 -2 -5z"/>
<path d="M820 1425 c0 -10 11 -15 35 -15 24 0 35 5 35 15 0 10 -11 15 -35 15
-24 0 -35 -5 -35 -15z"/>
<path d="M748 1423 c-34 -9 -20 -33 18 -33 28 0 35 3 32 17 -3 19 -21 24 -50
16z"/>
<path d="M4227 1359 c7 -7 15 -10 18 -7 3 3 -2 9 -12 12 -14 6 -15 5 -6 -5z"/>
<path d="M3615 1350 c-4 -6 6 -10 22 -10 22 0 25 2 13 10 -19 12 -27 12 -35 0z"/>
<path d="M4440 1350 c0 -5 6 -10 14 -10 8 0 18 5 21 10 3 6 -3 10 -14 10 -12
0 -21 -4 -21 -10z"/>
<path d="M3767 1330 c5 -19 2 -20 -36 -14 -28 4 -41 3 -41 -5 0 -16 83 -14
106 4 16 13 17 16 4 25 -24 16 -39 12 -33 -10z"/>
<path d="M3965 1329 c40 -18 40 -18 10 -19 -16 0 -37 -5 -45 -10 -12 -7 -8
-10 15 -10 37 0 75 10 75 19 0 9 -67 41 -83 40 -7 0 6 -9 28 -20z"/>
<path d="M4257 1343 c-4 -3 -24 -10 -44 -14 -36 -7 -36 -7 11 -6 29 1 51 7 54
15 4 13 -10 17 -21 5z"/>
<path d="M4120 1330 c0 -5 -13 -10 -29 -10 -17 0 -33 -5 -36 -11 -5 -7 8 -8
41 -3 59 8 71 14 53 25 -19 12 -29 11 -29 -1z"/>
<path d="M1530 1300 c-80 -18 -79 -22 14 -40 46 -9 76 -9 137 1 81 13 92 25
29 31 -19 2 -37 6 -40 9 -12 16 -71 15 -140 -1z"/>
<path d="M3770 1280 c0 -5 9 -10 21 -10 11 0 17 5 14 10 -3 6 -13 10 -21 10
-8 0 -14 -4 -14 -10z"/>
<path d="M1438 1123 c7 -3 16 -2 19 1 4 3 -2 6 -13 5 -11 0 -14 -3 -6 -6z"/>
</g>
</svg>
