<?xml version="1.0" standalone="no"?>
<!DOCTYPE svg PUBLIC "-//W3C//DTD SVG 20010904//EN"
 "http://www.w3.org/TR/2001/REC-SVG-20010904/DTD/svg10.dtd">
<svg version="1.0" xmlns="http://www.w3.org/2000/svg"
 width="250.000000pt" height="250.000000pt" viewBox="0 0 250.000000 250.000000"
 preserveAspectRatio="xMidYMid meet">

<g transform="translate(0.000000,250.000000) scale(0.100000,-0.100000)"
fill="#000000" stroke="none">
<path d="M1765 1806 c-120 -25 -152 -61 -142 -161 6 -61 50 -152 104 -215 69
-81 96 -74 103 27 5 63 7 68 30 71 41 6 53 22 47 65 -4 27 -1 40 8 43 33 13
48 140 19 168 -18 19 -81 19 -169 2z m-75 -66 c0 -5 -4 -10 -10 -10 -5 0 -10
5 -10 10 0 6 5 10 10 10 6 0 10 -4 10 -10z m160 -136 c0 -11 -6 -14 -22 -9
-39 12 -44 25 -10 25 22 0 32 -5 32 -16z"/>
<path d="M1393 1759 c-38 -8 -64 -21 -97 -51 -41 -36 -46 -44 -46 -83 0 -63
37 -194 68 -242 13 -21 22 -23 93 -23 92 0 181 28 205 66 15 22 15 26 0 49
-26 39 -53 47 -121 37 -33 -6 -61 -9 -63 -7 -2 2 9 9 25 17 20 10 29 22 31 44
3 34 -20 53 -43 34 -11 -10 -25 -4 -25 10 0 4 27 10 59 12 33 2 66 10 75 17
21 18 22 106 1 115 -31 12 -112 14 -162 5z m-23 -39 c0 -5 -2 -10 -4 -10 -3 0
-8 5 -11 10 -3 6 -1 10 4 10 6 0 11 -4 11 -10z m-40 -30 c-14 -10 -26 -17 -28
-15 -7 7 23 34 38 34 10 1 6 -6 -10 -19z m172 -212 c-9 -9 -15 -9 -24 0 -9 9
-7 12 12 12 19 0 21 -3 12 -12z"/>
<path d="M1135 1733 c-44 -11 -51 -27 -44 -105 4 -40 11 -84 15 -97 5 -18 4
-23 -7 -19 -21 7 -37 46 -46 113 l-8 60 -48 -1 c-30 0 -52 -6 -58 -15 -16 -24
8 -198 42 -306 12 -39 41 -50 74 -29 20 13 25 25 25 56 0 28 4 40 14 40 17 0
26 -22 26 -61 0 -22 7 -32 25 -41 36 -16 70 10 78 59 17 102 -2 301 -33 338
-13 15 -20 16 -55 8z m0 -33 c-3 -5 -11 -10 -16 -10 -6 0 -7 5 -4 10 3 6 11
10 16 10 6 0 7 -4 4 -10z"/>
<path d="M778 1683 c-10 -2 -18 -10 -18 -16 0 -12 -69 -62 -75 -55 -6 6 9 24
29 35 16 9 16 11 2 16 -39 15 -126 -112 -126 -183 0 -42 45 -134 77 -160 67
-52 150 -47 216 14 26 24 37 42 37 63 0 56 -46 71 -91 29 -26 -24 -27 -24 -60
-8 -21 10 -35 26 -37 39 -4 28 36 70 75 78 73 15 78 18 81 61 2 22 -2 52 -7
67 -9 23 -16 27 -48 26 -21 -1 -46 -3 -55 -6z m62 -287 c0 -3 -4 -8 -10 -11
-5 -3 -10 -1 -10 4 0 6 5 11 10 11 6 0 10 -2 10 -4z"/>
<path d="M2062 1341 c-61 -21 -85 -41 -103 -82 -16 -39 1 -120 37 -172 l25
-37 93 0 c78 0 95 -3 100 -17 4 -9 1 -20 -6 -25 -19 -13 -110 -3 -146 16 -17
9 -45 16 -61 16 -41 0 -54 -28 -49 -101 7 -98 54 -129 192 -129 173 0 255 70
228 195 -19 89 -85 135 -191 135 -65 0 -93 17 -66 40 13 11 27 10 81 -5 62
-17 66 -17 84 0 25 22 34 71 23 116 -17 66 -126 89 -241 50z m88 -31 c13 -9
13 -10 0 -10 -39 0 -97 -25 -122 -52 l-28 -30 0 24 c0 53 102 99 150 68z m108
-316 c-3 -19 -34 -41 -43 -32 -9 9 18 48 33 48 7 0 12 -7 10 -16z m-238 -8 c0
-8 -4 -17 -9 -21 -12 -7 -24 12 -16 25 9 15 25 12 25 -4z"/>
<path d="M1635 1291 c-50 -23 -130 -108 -155 -164 -39 -89 -35 -149 17 -255
46 -94 110 -124 200 -96 l54 17 27 -27 c38 -36 83 -35 112 2 19 23 21 37 18
99 -6 129 -58 164 -138 93 -51 -46 -86 -51 -118 -17 -25 26 -27 45 -10 82 14
32 43 39 118 32 47 -5 62 -3 78 11 24 20 52 99 52 143 0 79 -153 127 -255 80z
m60 -31 c3 -5 0 -10 -8 -10 -31 0 -108 -64 -148 -123 -22 -34 -38 -51 -34 -37
15 53 52 106 100 142 50 38 78 47 90 28z m95 -352 c-34 -28 -70 -37 -70 -18 0
6 6 10 13 10 6 1 25 12 41 25 17 13 34 21 40 18 5 -4 -6 -19 -24 -35z"/>
<path d="M1135 1232 c-64 -41 -95 -96 -113 -197 -24 -141 23 -267 117 -315 50
-25 84 -25 141 1 55 25 96 62 121 111 47 92 4 290 -81 373 -35 34 -46 39 -97
42 -45 3 -65 0 -88 -15z m8 -67 c-24 -20 -44 -48 -48 -65 -4 -17 -11 -30 -17
-30 -6 0 -7 7 -4 16 3 9 6 21 6 28 0 22 61 86 83 86 17 0 14 -6 -20 -35z m125
-174 c26 -23 29 -67 5 -93 -38 -42 -91 2 -78 64 4 18 9 36 12 41 8 13 37 7 61
-12z m45 -120 c-21 -27 -53 -41 -53 -22 0 16 64 71 69 59 2 -5 -6 -22 -16 -37z"/>
<path d="M730 1199 c-48 -14 -94 -61 -121 -123 -18 -40 -23 -71 -23 -146 -1
-121 18 -174 81 -230 42 -37 51 -40 102 -40 45 0 66 6 102 28 108 69 143 168
104 300 -49 164 -139 241 -245 211z m30 -43 c0 -3 -18 -15 -40 -27 -23 -13
-46 -37 -56 -58 -10 -20 -19 -31 -21 -24 -6 17 25 75 51 95 19 16 66 25 66 14z
m72 -213 c20 -18 24 -73 6 -91 -7 -7 -21 -12 -33 -12 -29 0 -45 19 -45 53 0
60 34 84 72 50z m68 -83 c0 -12 -57 -70 -69 -70 -19 0 -12 19 22 53 30 31 47
37 47 17z"/>
<path d="M137 1126 c-90 -24 -95 -47 -58 -246 36 -195 57 -246 111 -272 32
-15 41 -16 104 -2 150 32 258 106 258 178 0 48 -11 59 -87 92 -63 26 -80 46
-51 57 24 10 48 65 41 96 -8 35 -48 74 -99 95 -46 19 -151 20 -219 2z m38 -45
c-16 -4 -40 -13 -52 -20 -13 -6 -23 -8 -23 -3 0 19 27 32 65 31 38 -1 38 -1
10 -8z m85 -120 c0 -21 -13 -41 -26 -41 -14 0 -19 31 -7 43 10 10 33 8 33 -2z
m55 -176 c0 -31 -49 -28 -53 3 -3 20 0 23 25 20 20 -2 28 -8 28 -23z"/>
<path d="M1560 586 c0 -24 -3 -51 -6 -60 -4 -11 -1 -16 10 -16 13 0 16 12 16
60 0 33 -4 60 -10 60 -5 0 -10 -20 -10 -44z"/>
<path d="M830 561 c-15 -28 -13 -33 10 -21 11 6 20 17 20 25 0 21 -17 18 -30
-4z"/>
<path d="M1627 573 c-4 -3 -7 -11 -7 -17 0 -6 5 -5 12 2 6 6 9 14 7 17 -3 3
-9 2 -12 -2z"/>
<path d="M1327 549 c8 -8 16 -8 30 0 16 9 14 10 -11 11 -22 0 -27 -3 -19 -11z"/>
<path d="M1000 538 c0 -7 5 -20 10 -28 8 -12 10 -11 10 7 0 12 -4 25 -10 28
-5 3 -10 0 -10 -7z"/>
<path d="M1080 530 c0 -13 11 -13 30 0 12 8 11 10 -7 10 -13 0 -23 -4 -23 -10z"/>
<path d="M1340 510 c0 -11 4 -20 9 -20 5 0 7 9 4 20 -3 11 -7 20 -9 20 -2 0
-4 -9 -4 -20z"/>
<path d="M830 490 c0 -5 4 -10 9 -10 6 0 13 5 16 10 3 6 -1 10 -9 10 -9 0 -16
-4 -16 -10z"/>
</g>
</svg>
