<?xml version="1.0" standalone="no"?>
<!DOCTYPE svg PUBLIC "-//W3C//DTD SVG 20010904//EN"
 "http://www.w3.org/TR/2001/REC-SVG-20010904/DTD/svg10.dtd">
<svg version="1.0" xmlns="http://www.w3.org/2000/svg"
 width="256.000000pt" height="256.000000pt" viewBox="0 0 256.000000 256.000000"
 preserveAspectRatio="xMidYMid meet">

<g transform="translate(0.000000,256.000000) scale(0.100000,-0.100000)"
fill="#000000" stroke="none">
<path d="M1390 2448 c-36 -64 -43 -98 -38 -186 5 -92 48 -181 123 -251 173
-164 435 -161 564 8 l25 33 -37 -25 c-61 -41 -101 -50 -202 -45 -118 6 -199
42 -286 124 -80 77 -120 159 -127 258 -2 41 0 88 6 105 16 45 6 38 -28 -21z"/>
<path d="M1012 2338 c-81 -126 -103 -231 -78 -372 41 -240 235 -451 480 -521
81 -24 259 -24 346 -1 139 37 271 139 334 256 l30 54 -37 -36 c-149 -149 -374
-192 -598 -114 -106 37 -175 82 -269 176 -95 94 -148 183 -176 291 -21 79 -20
208 0 274 8 27 14 51 12 52 -2 2 -21 -25 -44 -59z"/>
<path d="M565 2183 c-98 -131 -135 -240 -135 -399 0 -212 101 -446 264 -609
119 -118 284 -217 433 -256 112 -31 345 -31 454 -1 196 53 377 190 468 354
l25 43 -43 -38 c-155 -139 -371 -203 -602 -177 -120 13 -194 33 -295 80 -267
123 -467 357 -535 629 -28 110 -24 293 9 386 11 33 19 61 18 62 -2 2 -29 -32
-61 -74z"/>
<path d="M663 729 c-114 -22 -186 -108 -212 -256 -19 -102 7 -176 72 -207 28
-13 67 -16 195 -16 89 0 163 3 166 8 2 4 7 24 11 45 7 35 6 37 -20 37 -22 0
-26 3 -20 18 62 146 68 245 19 309 -41 54 -125 79 -211 62z m91 -100 c53 -24
56 -88 13 -219 l-22 -65 -73 0 c-65 0 -76 3 -93 24 -36 44 -17 174 34 229 38
41 92 53 141 31z"/>
<path d="M2267 628 c-24 -35 -61 -89 -82 -121 -38 -57 -50 -61 -57 -22 -3 17
-12 20 -62 23 -46 2 -57 0 -53 -10 2 -8 14 -48 26 -89 16 -59 19 -82 11 -109
-14 -50 -15 -50 44 -50 l54 0 11 45 c8 32 46 91 134 207 68 90 127 169 131
176 5 9 -8 12 -53 12 l-60 0 -44 -62z"/>
<path d="M1485 626 c-91 -26 -148 -124 -149 -258 -1 -99 47 -127 226 -128 l86
0 7 33 c4 17 9 40 11 50 5 15 -4 17 -98 17 -111 0 -128 6 -128 47 0 23 1 23
124 23 137 0 130 -4 141 73 9 62 -9 113 -46 133 -43 22 -116 26 -174 10z m96
-86 c11 -6 19 -21 19 -35 0 -24 -2 -25 -70 -25 -79 0 -90 13 -44 49 29 23 64
27 95 11z"/>
<path d="M316 608 c-3 -13 -6 -33 -6 -46 0 -21 4 -23 47 -20 46 3 47 4 59 46
l13 42 -53 0 c-47 0 -54 -3 -60 -22z"/>
<path d="M995 608 c-51 -228 -55 -293 -16 -332 19 -19 35 -21 145 -24 113 -3
125 -2 130 15 6 22 76 350 76 358 0 4 -21 5 -47 3 l-48 -3 -30 -140 -30 -140
-51 -3 c-80 -5 -83 4 -53 159 l26 129 -48 0 c-42 0 -49 -3 -54 -22z"/>
<path d="M1795 608 c-3 -13 -19 -88 -35 -168 -17 -80 -33 -155 -37 -167 -5
-22 -2 -23 46 -23 28 0 51 3 51 6 0 9 41 207 51 247 l10 37 114 0 115 0 0 25
c0 14 -9 34 -20 45 -18 18 -33 20 -155 20 -131 0 -135 -1 -140 -22z"/>
<path d="M265 375 c-32 -151 -52 -195 -89 -195 -29 0 -31 -3 -40 -54 l-7 -38
65 4 c105 6 122 30 167 240 16 79 33 151 35 161 5 15 -2 17 -49 17 l-54 0 -28
-135z"/>
</g>
</svg>
